<?xml version="1.0" encoding="utf-8"?>
<!-- Generator: Adobe Illustrator 25.0.1, SVG Export Plug-In . SVG Version: 6.00 Build 0)  -->
<svg version="1.1" id="Layer_1" xmlns="http://www.w3.org/2000/svg" xmlns:xlink="http://www.w3.org/1999/xlink" x="0px" y="0px"
	 viewBox="0 0 382.81 382.82" style="enable-background:new 0 0 382.81 382.82;" xml:space="preserve">
<style type="text/css">
	.st0{fill:#FEFEFE;}
	.st1{fill:#131313;}
	.st2{fill:#4B4B4B;}
	.st3{fill:#696969;}
	.st4{fill:#D62929;}
	.st5{fill:#FFFFFF;}
</style>
<path d="M152.35,29.13c-1.27,0.93-2.54,1.01-3.8,0C149.81,29.13,151.08,29.13,152.35,29.13z"/>
<path d="M158.06,29.13c-1.27,1.01-2.54,0.93-3.8,0C155.52,29.13,156.79,29.13,158.06,29.13z"/>
<path d="M146.01,29.13c-0.42,0.72-0.85,0.91-1.27,0C145.16,29.13,145.59,29.13,146.01,29.13z"/>
<path d="M162.49,29.13c-0.42,0.95-0.85,0.81-1.27,0C161.65,29.13,162.07,29.13,162.49,29.13z"/>
<g>
	<path d="M277.56,141.75c-1.04-10.59-3.15-20.91-6.81-30.84c-7.4-20.06-18.96-37.35-35.15-51.51
		c-16.01-14.01-34.31-23.29-54.98-28.14c-5.58-1.31-11.25-1.37-16.86-2.12h-1.26c-0.43,0.4-0.85,0.4-1.27,0h-3.17
		c-1.26,0.52-2.54,0.52-3.8,0h-1.9c-1.27,0.52-2.54,0.52-3.81,0h-2.54c-0.43,0.4-0.85,0.4-1.27,0h-2.54
		c-4.01,0.9-8.14,0.55-12.18,1.32c-12.67,2.43-24.6,6.79-35.95,12.9c-23.76,12.79-41.2,31.58-53.26,55.59
		c-10.98,21.87-13.38,45.19-11.31,69.1c1.37,15.84,6.44,30.75,14.26,44.65c1.34,2.38,1.62,4.6,0.87,7.24
		c-4.96,17.48-9.73,35-14.57,52.51c-0.34,1.25-1.17,2.64-0.17,3.79c0.03,0.04,0.06,0.07,0.09,0.1c0.03,0.03,0.07,0.07,0.1,0.1
		c1.14,1.04,2.54,0.21,3.79-0.13c17.52-4.82,35.06-9.57,52.52-14.57c2.63-0.76,4.89-0.59,7.23,0.85c6.25,3.84,13.06,6.53,19.98,8.8
		c16.33,5.36,33.04,7.56,50.27,5.96c11.24-1.04,22.16-3.3,32.68-7.25c19.85-7.43,36.86-19.05,50.79-35.12
		c11.51-13.28,19.98-28.25,25.14-45.03C277.3,174.22,279.18,158.19,277.56,141.75z M163.38,220.29h-3.1
		c-0.32,0.04-0.67,0.06-1.02,0.06c-0.42,0-0.86-0.03-1.31-0.06h-14.78v-20.05h20.22V220.29z M179.77,151.49
		c-4.92,4.78-10.06,9.34-15.17,13.92c-0.97,0.87-1.56,1.75-1.76,2.89c-0.06,0.37-0.09,0.76-0.07,1.19
		c0.13,3.48-0.03,6.97,0.07,10.45v0.18c0,1.02-0.22,1.56-1.02,1.75c-0.24,0.06-0.52,0.08-0.87,0.07c-2.49-0.05-4.98-0.07-7.47-0.07
		c-2.57,0-5.15,0.02-7.73,0.06c-0.36,0.01-0.66-0.01-0.92-0.06h-1.55v-15.33c-0.98-6.28,3.28-11.26,9.11-15.84
		c5.14-4.03,9.82-8.66,14.47-13.26c5.68-5.62,7.01-14.23,3.63-21.35c-3.44-7.23-11.23-11.64-19.14-10.81
		c-7.81,0.81-14.34,6.49-16.47,14.17c-0.42,1.52,0.27,3.77-0.99,4.43c-1.42,0.74-3.48,0.32-5.26,0.33
		c-3.49,0.03-6.98-0.13-10.45,0.06c-2.31,0.13-3.01-0.36-2.82-2.89c1.19-15.49,11.66-28.7,26.77-33.47
		c14.71-4.65,31,0.32,40.72,12.43C195.21,115.73,193.94,137.72,179.77,151.49z"/>
	<path class="st0" d="M353.34,353.02c0.22,0.22,0.42,0.46,0.65,0.67c-0.42-0.18-0.84-0.36-1.26-0.54
		c-14.41-4.04-28.87-7.87-43.18-12.22c-4.87-1.48-8.69-0.97-13.26,1.35c-50.45,25.64-112.16,6.41-139.33-43.19
		c-0.5-0.9-0.92-1.84-1.5-3.03c38.58-1.28,71.77-14.97,98.91-42.15c27.07-27.11,40.69-60.22,41.98-98.75
		c10.32,5.17,19.28,11.73,27.14,19.77c17.12,17.5,27.13,38.41,29.88,62.75c0.06,0.5-0.08,1.08,0.62,1.26
		c-1.82-0.31-1.38-1.87-1.53-2.97c-2.03-14.97-6.86-28.99-14.87-41.78c-9.41-15.02-21.71-27.18-37.23-35.93
		c-3.01-1.7-3.05-1.67-3.27,1.86c-1.25,19.4-5.75,38.01-14.36,55.46c-13.61,27.6-33.88,48.96-60.98,63.76
		c-16.63,9.08-34.37,14.55-53.16,16.65c-3.03,0.34-6.09,0.7-9.14,0.78c-2.1,0.06-2.35,0.75-1.4,2.47
		c3.45,6.21,7.37,12.11,12.09,17.4c17.4,19.48,38.88,31.59,64.87,35.23c19.4,2.72,38.1-0.05,56.03-7.92
		c1.65-0.72,3.51-1.12,4.89-2.22c4.51-3.61,9.08-3.01,14.26-1.45c12.84,3.85,25.84,7.23,38.77,10.8c1.22,0.34,2.43,0.7,3.57,1.3
		c0.2,0.1,0.38,0.23,0.54,0.37C353.17,352.85,353.26,352.93,353.34,353.02z"/>
	<path d="M353.99,244.03c-0.52,1.26-0.52,2.54,0,3.8v6.34c-0.39,0.35-0.31,0.82-0.33,1.26v0.03c0,0.06,0.01,0.11,0,0.17
		c0.01,0.38-0.01,0.77,0.33,1.07v3.17c-1.03,0.29-0.65,1.2-0.74,1.84c-1.82,13.37-5.74,26.06-12.44,37.81
		c-1.09,1.91-1.25,3.55-0.67,5.59c4.2,14.87,8.35,29.75,12.4,44.66c0.24,0.9,1.29,1.94,0.54,2.99c0.1,0.08,0.18,0.17,0.26,0.25
		c-0.14,0.08-0.34,0.13-0.61,0.13c-14.41-4.04-28.87-7.87-43.18-12.22c-4.87-1.48-8.69-0.97-13.26,1.35
		c-50.45,25.64-112.16,6.41-139.33-43.19c-0.5-0.9-0.92-1.84-1.5-3.03c38.58-1.28,71.77-14.97,98.91-42.15
		c27.07-27.11,40.69-60.22,41.98-98.75c10.32,5.17,19.28,11.73,27.14,19.77c17.12,17.5,27.13,38.41,29.88,62.75
		c0.06,0.5-0.08,1.08,0.62,1.26V244.03z"/>
	<path class="st0" d="M353.99,353.69c-0.42-0.18-0.84-0.36-1.26-0.54c0.15-0.13,0.26-0.25,0.35-0.38c0.1,0.08,0.18,0.17,0.26,0.25
		C353.56,353.24,353.76,353.48,353.99,353.69z"/>
	<path class="st1" d="M353.99,247.83c-0.94-1.27-1-2.54,0-3.8C353.99,245.29,353.99,246.56,353.99,247.83z"/>
	<path class="st2" d="M353.46,255.47c-0.1-0.55-0.06-1.04,0.53-1.31c0,0.42,0,0.85,0,1.27C353.83,255.7,353.65,255.71,353.46,255.47
		z"/>
	<path class="st3" d="M353.46,255.47c0.18-0.01,0.35-0.02,0.53-0.04c0,0.42,0,0.85,0,1.27
		C353.27,256.53,353.38,255.99,353.46,255.47z"/>
	<path class="st4" d="M162.84,168.3v11.64c-0.1-3.48,0.06-6.97-0.07-10.45C162.75,169.06,162.77,168.67,162.84,168.3z"/>
	<path class="st5" d="M162.84,180.12v1.82h-1.61C162.5,181.75,162.84,181.18,162.84,180.12z"/>
	<rect x="143.27" y="181.65" width="19.57" height="2.62"/>
</g>
</svg>
