<?xml version="1.0" encoding="utf-8"?>
<!-- Generator: Adobe Illustrator 25.0.1, SVG Export Plug-In . SVG Version: 6.00 Build 0)  -->
<svg version="1.1" id="Layer_1" xmlns="http://www.w3.org/2000/svg" xmlns:xlink="http://www.w3.org/1999/xlink" x="0px" y="0px"
	 viewBox="0 0 382.81 382.82" style="enable-background:new 0 0 382.81 382.82;" xml:space="preserve">
<style type="text/css">
	.st0{fill:#FEFEFE;}
	.st1{fill:#131313;}
	.st2{fill:#4B4B4B;}
	.st3{fill:#696969;}
	.st4{fill:#D62929;}
	.st5{fill:#FFFFFF;}
</style>
<g>
	<path d="M367.07,191.19c-23.08,0.26-46.17,0.09-69.25,0.09h-4.84v-4.68c0-57.27,0-114.55-0.01-171.83
		c0-10.45-4.28-14.76-14.73-14.76C190.28,0,102.32,0,14.35,0.01c-10.06,0-14.34,4.26-14.34,14.3C0,117.63-0.02,220.96,0.02,324.28
		c0.01,29.24,18.31,51.96,46.3,57.45c4,0.79,8.17,1.04,12.27,1.04c88.46,0.06,176.92,0.07,265.38,0.03
		c30.88-0.01,53.25-19.26,58.23-49.84c0.1-0.6,0.4-1.17,0.61-1.75V200.92C380.08,193.59,374.71,191.1,367.07,191.19z M60.04,93.46
		c0.74-5.07,4.14-8.62,9.2-9.48c1.46-0.25,2.97-0.35,4.46-0.35c48.54-0.02,97.07-0.02,145.61,0c8.73,0,13.68,4.27,13.79,11.76
		c0.11,7.15-4.45,12.02-11.8,12.12c-11.85,0.16-23.71,0.06-35.56,0.07h-39.3c-24.58-0.01-49.16,0.04-73.74-0.03
		C63.8,107.53,58.8,101.84,60.04,93.46z M60.13,152.95c0.8-4.68,4.12-8.15,8.8-9.03c1.58-0.29,3.22-0.39,4.83-0.39
		c48.53-0.02,97.05,0,145.58-0.03c5.15,0,9.64,1.07,12.35,6.03c3.74,6.86,0.38,18.05-11.13,17.95c-24.7-0.22-49.4-0.07-74.1-0.07
		c-24.7,0-49.4,0.05-74.1-0.02C63.68,167.37,58.69,161.33,60.13,152.95z M221.07,227.18c-22.58,0.1-45.16,0.04-67.75,0.04h-6.73
		c-24.83,0-49.66,0.04-74.49-0.02c-8.03-0.03-12.76-5.32-12.11-13.23c0.45-5.46,3.79-9.28,9.16-10.37c1.22-0.24,2.48-0.32,3.72-0.32
		c49.03-0.02,98.07-0.02,147.1-0.01c6.76,0.01,10.73,2.59,12.52,7.99C235.23,219.54,229.91,227.14,221.07,227.18z M231.62,281.15
		c-2.42,4.46-6.44,5.9-11.28,5.89c-24.57-0.02-49.15-0.01-73.73-0.01c-24.7,0-49.41,0.03-74.11-0.01
		c-8.67-0.02-13.73-5.96-12.39-14.37c0.8-5.05,4.56-8.71,9.75-9.44c0.62-0.09,1.25-0.1,1.87-0.1c49.78-0.01,99.56-0.04,149.34,0.02
		C230.69,263.14,236.19,272.7,231.62,281.15z M358.74,326.1c-0.07,16.36-11.59,29.6-27.38,32.18c-20.37,3.32-38.2-11.56-38.34-32.3
		c-0.16-25.2-0.04-50.4-0.04-75.59c-0.01-10.36,0-20.71,0-31.06v-3.95h65.48c0.13,0.93,0.33,1.76,0.33,2.58
		C358.8,254.01,358.9,290.06,358.74,326.1z"/>
</g>
</svg>
