<?xml version="1.0" encoding="utf-8"?>
<!-- Generator: Adobe Illustrator 25.0.1, SVG Export Plug-In . SVG Version: 6.00 Build 0)  -->
<svg version="1.1" id="Layer_1" xmlns="http://www.w3.org/2000/svg" xmlns:xlink="http://www.w3.org/1999/xlink" x="0px" y="0px"
	 viewBox="0 0 382.81 382.82" style="enable-background:new 0 0 382.81 382.82;" xml:space="preserve">
<style type="text/css">
	.st0{fill:#F7960D;}
	.st1{opacity:0.15;fill:#FFA200;}
</style>
<path class="st0" d="M212.85,147.11c0.43,0.32,0.93,0.58,1.28,0.97c0.82,0.91,0.82,1.96,0.08,3.28c-2.2,3.88-4.41,7.76-6.62,11.65
	c-3.74,6.59-7.49,13.17-11.23,19.76c-0.14,0.24-0.26,0.5-0.46,0.87c0.41,0,0.72,0,1.02,0c6.66,0,13.32,0,19.99,0
	c0.87,0,1.66,0.16,2.29,0.81c0.85,0.87,1.01,2.15,0.31,3.17c-0.4,0.59-0.9,1.12-1.38,1.66c-13.38,15.11-26.77,30.22-40.15,45.33
	c-0.77,0.87-1.67,1.33-2.83,1c-1.11-0.31-1.8-1.08-1.87-2.22c-0.03-0.6,0.15-1.26,0.39-1.82c4.42-10.42,8.86-20.82,13.29-31.23
	c0.14-0.34,0.28-0.68,0.45-1.12c-0.4,0-0.71,0-1.02,0c-6.81,0-13.61,0-20.42,0c-2.52,0-3.65-1.52-2.86-3.9
	c5.09-15.33,10.18-30.65,15.25-45.98c0.36-1.1,1.02-1.84,2.1-2.22C191.27,147.11,202.06,147.11,212.85,147.11z"/>
<circle class="st1" cx="191.41" cy="191.41" r="121.93"/>
</svg>
