<svg id="Layer_1" data-name="Layer 1" xmlns="http://www.w3.org/2000/svg" viewBox="0 0 370.72 413.39"><path d="M81.59,411.39c-4.64-1-9.36-1.67-13.91-3-29.14-8.2-47.55-30.66-48.84-61.25C17.52,315.59,21,284.45,33,254.87c7.75-19.1,19-35.62,37.88-45.71a74.48,74.48,0,0,1,37.18-8.92c4.11.08,8.45,2.16,12.21,4.21,6.06,3.29,11.67,7.38,17.55,11q51.3,31.68,102.57-.07c4.74-2.94,9.58-5.78,14-9.12,8.18-6.12,17.17-6.89,26.89-5.46,26.51,3.89,45.24,18.42,57.87,41.58,11.27,20.69,16.34,43.15,18.6,66.3a327.37,327.37,0,0,1,1.56,35.84c-.42,35.66-24.9,62.2-60.37,66.11a15.62,15.62,0,0,0-2.6.75Z"/><path d="M285,100.89c.36,53.86-44.09,98.56-98.26,98.71S88,155.11,87.94,101.4A98.51,98.51,0,0,1,186,2.6C240.48,2.19,284.65,46.06,285,100.89Z"/></svg>