<?xml version="1.0" encoding="utf-8"?>
<!-- Generator: Adobe Illustrator 24.1.1, SVG Export Plug-In . SVG Version: 6.00 Build 0)  -->
<svg version="1.1" id="Layer_1" xmlns="http://www.w3.org/2000/svg" xmlns:xlink="http://www.w3.org/1999/xlink" x="0px" y="0px"
	 viewBox="0 0 2420.5 449.4" style="enable-background:new 0 0 2420.5 449.4;" xml:space="preserve">
<style type="text/css">
	.st0{fill:#231F20;}
	.st1{fill-rule:evenodd;clip-rule:evenodd;fill:#231F20;}
	.st2{fill:url(#SVGID_1_);}
</style>
<g>
	<g>
		
			<rect x="352.1" y="150.3" transform="matrix(2.630764e-02 -0.9997 0.9997 2.630764e-02 83.1207 609.6696)" class="st0" width="4.8" height="223.7"/>
	</g>
	<g>
		
			<rect x="339.7" y="193.2" transform="matrix(0.3731 -0.9278 0.9278 0.3731 -64.0496 505.6036)" class="st0" width="4.8" height="214"/>
	</g>
	<g>
		
			<rect x="315.1" y="228.6" transform="matrix(0.6811 -0.7322 0.7322 0.6811 -140.7071 337.8562)" class="st0" width="4.8" height="203.7"/>
	</g>
	<g>
		<polygon class="st0" points="324.5,435.1 239.2,263.1 243.5,261 328.8,433 		"/>
	</g>
	<g>
		<polygon class="st0" points="239.9,438.7 235.1,438.6 239,263.3 243.8,263.4 		"/>
	</g>
	<g>
		
			<rect x="112.7" y="340.7" transform="matrix(0.4322 -0.9018 0.9018 0.4322 -194.1285 377.8683)" class="st0" width="180.5" height="4.8"/>
	</g>
	<g>
		
			<rect x="74.3" y="321.3" transform="matrix(0.7587 -0.6515 0.6515 0.7587 -170.0844 188.2337)" class="st0" width="189.5" height="4.8"/>
	</g>
	<g>
		
			<rect x="46.1" y="290.8" transform="matrix(0.9482 -0.3178 0.3178 0.9482 -85.6406 61.3603)" class="st0" width="198.4" height="4.8"/>
	</g>
	<g>
		
			<rect x="130" y="150" transform="matrix(2.956687e-02 -0.9996 0.9996 2.956687e-02 -128.2374 381.56)" class="st0" width="4.8" height="213.7"/>
	</g>
	<g>
		
			<rect x="127.3" y="102.6" transform="matrix(0.3488 -0.9372 0.9372 0.3488 -120.7874 264.1662)" class="st0" width="4.8" height="232.8"/>
	</g>
	<g>
		
			<rect x="146.4" y="55.7" transform="matrix(0.6637 -0.748 0.748 0.6637 -83.0629 171.1477)" class="st0" width="4.8" height="244.5"/>
	</g>
	<g>
		
			<rect x="183.5" y="27.3" transform="matrix(0.8948 -0.4466 0.4466 0.8948 -47.0886 98.7165)" class="st0" width="4.8" height="243.9"/>
	</g>
	<g>
		
			<rect x="121.9" y="134" transform="matrix(2.720082e-02 -0.9996 0.9996 2.720082e-02 101.6029 377.2204)" class="st0" width="245.5" height="4.8"/>
	</g>
	<g>
		
			<rect x="175.1" y="147.4" transform="matrix(0.4452 -0.8954 0.8954 0.4452 30.7906 349.2522)" class="st0" width="244.2" height="4.8"/>
	</g>
	<g>
		
			<rect x="214.9" y="176.2" transform="matrix(0.7626 -0.6469 0.6469 0.7626 -35.0928 261.4795)" class="st0" width="247.5" height="4.8"/>
	</g>
	<g>
		
			<rect x="236.8" y="219.2" transform="matrix(0.9487 -0.3162 0.3162 0.9487 -51.7697 124.2211)" class="st0" width="240.1" height="4.8"/>
	</g>
	<g>
		<path class="st0" d="M457.3,266.5c-14.6-11.8-22.3-24.8-23.1-38.6c-0.7-12.7,4.6-25.4,15.8-37.7c-17.6-3.9-29.9-11.6-36.5-22.8
			c-7.1-12.1-7.7-28.5-1.6-48.6c-15.6,7.1-29.2,8.2-40.5,3.3c-14.8-6.5-25.7-23-33.3-50.2c-25.7,17.5-46.1,23.4-62.2,18
			c-12-4.1-21.3-14.7-27.7-31.6c-13.2,22.1-28.6,34.4-45.6,36.6c-18.1,2.3-37.6-6.8-58.2-27c0.8,20-3.9,34.3-13.8,42.6
			c-11.3,9.3-29.4,10.8-54,4.6c8.5,20,9.7,36.1,3.4,48.1c-5.9,11.3-18.5,19-37.5,22.9c12,12.1,18.3,24.2,18.6,36.1
			c0.3,11.4-4.9,22.7-15.5,33.6l-3.4-3.3c9.6-9.9,14.4-20.1,14.1-30.2c-0.3-11.6-7.2-23.6-20.4-35.9l-3.6-3.3l4.8-0.8
			c20-3.4,33-10.5,38.6-21.3c6-11.5,4.1-27.8-5.6-48.5l-2.2-4.8L73,109c25.5,7.3,43.8,6.5,54.5-2.3c9.7-8,13.6-23.1,11.7-44.9
			l4.1-1.9C164.5,82.2,184.2,92.3,202,90c16.6-2.1,31.7-15.2,44.7-38.8l2.7-4.9l1.7,5.3c5.8,18.3,14.7,29.6,26.4,33.5
			c14.9,5,35.4-1.5,60.7-19.3l2.8-2l0.9,3.4c7.2,27.7,17.5,44.2,31.4,50.4c11.1,4.9,25.1,3,41.4-5.6l3.4,2.9
			c-7.4,21.3-7.5,38.1-0.5,50.1c6.4,10.9,19,18.1,37.5,21.4l4.5,0.8l-3.2,3.2c-12.2,12.3-18.1,24.8-17.4,37.3
			c0.7,12.4,7.8,24.2,21.3,35.1L457.3,266.5z"/>
	</g>
	<g>
		<path class="st0" d="M237.4,427.2l-1.6-2.6c-16-26.4-35.3-31.7-60.8-16.4l-2.9,1.7l-0.7-3.3c-4.2-20.3-14-40.4-54.5-35.9l-4.8,0.5
			l2.5-4.2c5.1-8.6,6.3-16.3,3.4-23.1c-4.7-10.9-19.7-19.6-43.4-25l-4.3-1l3.2-3.1c11.3-10.8,16.7-21.3,16.2-31.2
			c-0.5-9.3-6.2-18.3-17.1-26.9l-2.4-1.9l2.4-1.9c8.9-7.1,13.6-14.4,14.4-22.5c0.9-9-3.4-19.1-12.7-30l-2.8-3.3l4.3-0.6
			c18.8-2.6,29.9-7.8,35-16.4c4.6-7.8,4.3-19.1-1.1-33.4l-1.4-3.8l4,0.6c19.5,2.8,33.6,0.4,42-7c6.5-5.7,9.6-14.6,9.5-26.4l-0.1-5.4
			l4.1,3.6c15.6,13.8,29.8,19.7,42.3,17.6c12.4-2.1,23.7-12,33.6-29.7l2.3-4l2,4.1c7.6,15.8,16.3,24.4,26.5,26.4
			c11.8,2.2,26.7-4.8,43.9-20.8l3.4-3.1l0.6,4.6c2.8,20.9,9.4,34.5,19.6,40.5c8.9,5.2,21.1,4.9,36.2-1l5-2l-1.9,5
			c-6.5,17.4-6.9,30.4-1,38.8c6.3,8.9,20.2,13.3,41.1,12.9l1.5,4.3c-12.7,10.2-19.2,22.4-17.7,33.5c1.4,10.7,9.8,19.6,24.3,25.9
			l3.2,1.4l-2.5,2.5c-24.4,24.8-29.3,45-14.8,61.8l2.9,3.3L414,331c-15.8,2.2-26.3,7.5-32,16.1c-6,8.9-6.9,22-2.6,38.7l1.2,4.6
			l-4.4-1.7c-14.7-5.9-26.6-6.4-35.4-1.6c-9.2,5-15.6,16-19,32.9l-0.9,4.5l-3.2-3.3c-12.5-13-23.8-19.1-35.5-19.2
			c-0.1,0-0.1,0-0.2,0c-13.1,0-27,7.6-42.3,23.2L237.4,427.2z M201,394.8c14.3,0,26.6,8.2,37.2,24.7c15.4-15.1,29.7-22.4,43.5-22.4
			c0.1,0,0.1,0,0.2,0c12.1,0.1,23.6,5.7,35.9,17.6c3.9-15.9,10.8-26.6,20.5-31.9c9.2-5,21.1-5,35.3-0.2c-3.4-16-1.9-28.9,4.3-38.2
			c6-9,16.3-14.8,31.3-17.5c-12.7-17.7-7.7-38.2,15.3-62.5c-17.8-8.6-22.9-20-24-28.2c-1.5-11.3,3.8-23.3,14.6-33.6
			c-19.4-0.6-32-5.5-38.7-14.9c-6.3-8.9-6.7-21.8-1.3-38.4c-14.4,4.7-26.4,4.4-35.6-1c-10.7-6.3-17.9-19.6-21.3-39.5
			c-17.2,15.2-31.9,21.4-44.7,19c-10.9-2.1-20.1-10.3-28-25.1c-10.2,16.6-21.9,26.1-34.8,28.2c-12.9,2.2-27.2-3-42.4-15.5
			c-0.7,10.8-4.4,19.2-11,25c-8.9,7.8-23,10.7-41.9,8.6c4.7,14.2,4.5,25.3-0.5,33.8c-6.9,11.6-22,16-34.2,18
			c8.3,10.7,12.1,20.9,11.1,30.3c-0.8,8.5-5.5,16.5-13.9,23.9c10.5,8.9,16.1,18.5,16.6,28.5c0.5,10.4-4.4,21.1-14.6,31.9
			c22.9,5.8,37.6,15,42.6,26.7c3,7.1,2.5,15-1.5,23.4c38.7-2.7,49.9,17.5,54.5,36.9C184.6,397.4,193.1,394.8,201,394.8z"/>
	</g>
	<g>
		<path class="st0" d="M238.9,385.4l-1.8-3.1c-4.5-8-11.3-13.1-19.5-14.6c-9.1-1.7-19.1,1.2-27.6,8.1l-3.9,3.1l0-5
			c-0.1-6.3-1.5-18-10-25.7c-6.1-5.5-14.6-7.7-25.3-6.7l-4.4,0.4l2.1-3.9c3.4-6.4,3.7-12.4,1.1-17.7c-3.9-8-14-13.9-28.5-16.6
			l-4.6-0.9l3.4-3.2c5.9-5.6,8.7-11.5,8.4-17.2c-0.4-7.8-6.1-15.9-17.5-24.8l-3-2.4l3.4-1.7c7.7-3.8,12.6-9.2,13.8-15.3
			c1.3-6.3-1.3-13.6-7.6-20.9l-2.9-3.4l4.4-0.6c4.9-0.6,17-3.1,22.9-12.4c4-6.3,4.3-14.5,1-24.5l-1.2-3.7l3.8,0.5
			c14.9,2.1,26,0.2,32.1-5.4c4.3-4,6.3-10,5.8-17.9l4-1.9c10.9,9.6,20.9,13.7,29.9,12.2c9.2-1.5,17.6-8.9,25-22l2.1-3.6l2.1,3.6
			c6.6,11.3,13.6,17.4,21.5,18.6c8.4,1.3,18.4-3.2,29.5-13.4l3.4-3.1l0.6,4.5c2.1,15.4,6.9,25.4,14.4,29.8
			c6.3,3.7,14.9,3.5,25.5-0.6l5-2l-1.9,5c-4.4,11.8-4.6,20.7-0.4,26.6c4.7,6.7,15.1,9.8,31.2,9.6l1.2,4.5
			c-9,4.9-13.9,12.5-13.5,20.8c0.4,9,7.3,17.3,18.4,22l3.6,1.6l-3.1,2.5c-23.7,19.4-19.5,33.1-11.4,45.1l2.2,3.2l-3.8,0.5
			c-12.8,1.8-21.1,5.8-25.5,12.4c-4.1,6.1-4.7,14.7-2,25.5l1.1,4.1l-4.1-1.3c-9.5-2.9-17.4-2.6-23.3,0.9c-6.6,4-11.2,12.3-13.5,24.5
			l-0.8,4.5l-3.2-3.2c-7.9-8-19.4-12.4-30.6-11.8c-7.2,0.4-17.6,3.1-25.8,13.5L238.9,385.4z M212.5,362.4c2,0,4.1,0.2,6.1,0.6
			c8.5,1.6,15.8,6.6,21,14.1c7.1-7.6,16.6-12.1,27.2-12.7c11.1-0.6,22.5,3.2,31.1,10.3c2.8-11.5,7.8-19.4,14.8-23.6
			c6.2-3.8,14-4.6,23.2-2.5c-2-10.4-0.8-19,3.5-25.4c4.7-7.1,13-11.6,25.2-13.9c-9.7-16.4-6.2-30.4,11.5-45.9
			c-10.8-5.7-17.4-14.7-17.9-24.6c-0.4-7.8,3.1-15.2,9.7-20.8c-13.5-0.8-22.8-4.7-27.7-11.5c-4.5-6.4-5.1-15.2-1.7-26.3
			c-9.9,3-18.3,2.5-24.9-1.3c-8-4.7-13.4-14.4-16-28.9c-11.1,9.3-21,13.1-30.2,11.7c-8.5-1.3-16-7-22.8-17.5
			c-7.7,12.3-16.5,19.3-26.3,20.9c-9.3,1.5-19.4-1.8-29.9-10.1c-0.5,6.9-2.9,12.4-7.3,16.5c-6.7,6.2-17.8,8.6-32.4,7.1
			c2.6,9.8,1.7,18.2-2.5,25c-5.6,9-15.7,12.5-22.3,13.9c5.4,7.4,7.5,14.9,6.1,21.8c-1.4,6.6-6,12.5-13.2,16.8
			c10.7,9,16.1,17.5,16.5,26.1c0.3,6.1-2,12.1-6.9,17.8c13.8,3.4,23.5,9.8,27.7,18.3c2.7,5.6,2.9,11.9,0.5,18.3
			c10.2-0.4,18.6,2.5,24.9,8.1c6.4,5.8,10.4,14.4,11.3,24.7C197.6,364.8,205.2,362.4,212.5,362.4z"/>
	</g>
	<g>
		<path class="st0" d="M239.6,356.9l-1.8-3.1c-4-7.1-10.5-12-17.4-12.9c-5.7-0.8-11.1,1.2-15.8,5.8l-4,3.9l-0.1-5.6
			c-0.1-6.4-3.2-12.8-8.2-16.6c-5.6-4.3-13.4-5.4-22.4-3l-2.4-4c4.3-4.6,5.8-9.7,4.1-14.8c-2.2-6.6-9.5-12-18.7-13.7l-5.4-1l4.4-3.3
			c3.4-2.5,5-5.6,5-9.3c-0.1-7.2-6.4-15.6-12.7-20.2l1.4-4.3c3.7,0,7.1-2.4,9.3-6.5c2.3-4.4,3.2-11.3-1.2-17.8l-2.4-3.5l4.3-0.2
			c4.4-0.2,9.3-3.1,12.3-7.3c2.6-3.6,5.2-9.9,2.8-19.1l-0.9-3.5l3.6,0.5c10.9,1.5,19.6-0.2,23.4-4.6c2.6-3.1,3-7.6,1.3-13.3l4-2.4
			c8.4,8.5,18.8,12.5,26.6,10.2c6.2-1.8,10.5-7.5,12.4-16.4l4.5-0.6c5.3,9.9,11.1,15.4,17.3,16.4c5.5,0.9,11.6-1.9,18.1-8.2l3.4-3.3
			l0.6,4.7c1.2,9,4.3,15,9.3,17.9c6.2,3.7,14.5,1.7,20.3-0.6l4.4-1.7l-1.2,4.6c-2.4,9-1.9,15.8,1.5,20.1c3.2,4.1,9.1,6.2,17.6,5.8
			l1.3,4.5c-6.3,3.8-10,10.4-9.4,16.8c0.5,5.8,4.3,10.2,10.7,12.6l3.5,1.3l-2.7,2.6c-10.4,10.3-12.1,21.3-5,31.8l2.5,3.6l-4.4,0.1
			c-8.2,0.2-19.6,1.2-24.1,7.2c-2.3,3-2.7,7.1-1.3,12.6l-3.6,2.7c-6.5-3.9-13.6-4.3-18.2-0.9c-4.7,3.5-6,10.5-3.7,19.6l-3.7,2.6
			c-8.8-5.8-26.5-2.3-37.3,11.3L239.6,356.9z M218,335.9c1,0,2.1,0.1,3.2,0.2c7.3,1,14.3,5.6,19.1,12.5c10.2-11,25.7-15.8,36.9-12
			c-1.6-11.7,3.2-17.4,6.4-19.8c5-3.7,12.2-4.2,19.1-1.5c-0.4-4.7,0.6-8.7,3-11.9c4.9-6.5,14.7-8.3,23.7-8.9
			c-5.5-10.6-3.6-21.7,5.3-31.8c-6.2-3.3-10-8.7-10.6-15.2c-0.6-6.2,1.9-12.4,6.5-17.1c-6.7-0.8-11.7-3.3-14.9-7.4
			c-3.8-4.8-4.9-11.5-3.3-20c-8.1,2.4-15,2-20.4-1.2c-5.4-3.2-9-8.9-10.8-17.1c-6.5,5.3-12.9,7.5-18.9,6.5
			c-6.6-1-12.5-5.7-17.9-13.9c-3.5,9.4-9.4,13.1-14.2,14.5c-7.9,2.3-17.5-0.2-26.1-6.8c0.2,4.3-1,7.9-3.5,10.8
			c-4.5,5.2-13.2,7.6-24.3,6.7c1.2,7.4-0.3,14.3-4.3,19.8c-3.1,4.3-7.6,7.4-12.2,8.7c3.5,7.3,2.3,14.7-0.3,19.6
			c-2,3.7-4.9,6.5-8.2,7.9c5.7,5.4,10.7,13.2,10.8,20.8c0,3.7-1.2,7.2-3.5,10c8.9,2.8,15.6,8.6,18,15.9c1.6,4.8,1.1,9.8-1.4,14.4
			c9.8-1.1,16.4,1.9,20.4,5c5,3.8,8.4,9.4,9.6,15.6C208.9,337.4,213.4,335.9,218,335.9z"/>
	</g>
	<g>
		<path class="st0" d="M240.2,324.3l-1.7-4.6c-1.5-4.1-5.8-7.5-10.1-8.1c-3.6-0.5-6.8,0.9-9.3,4.1l-3.4,4.3l-0.9-5.4
			c-0.9-5.4-4.4-14.2-17.8-12.2l-2.1-4c1.6-1.8,2.4-3.5,2.2-5.3c-0.4-4.8-6.7-9.4-9.7-11.7l-2.6-1.9l1.6-1.9
			c0.8-1.1,1.2-2.3,0.9-3.8c-0.7-4.7-6.4-10.5-11.4-13.8l1.4-4.4c1.7,0,3.6-1.1,4.6-3c1.3-2.5,1.8-7.1-1.5-11.7l-2.4-3.5l4.3-0.2
			c2.1-0.1,4.4-1.5,6.1-3.8c2.8-3.8,3.5-9.2,2-14.9l-1-3.7l3.7,0.7c5.6,1.1,12.8,1,16.3-2.5c1.9-1.9,2.5-4.7,1.8-8.3l4-2.2
			c5.2,4.9,11.9,7.2,17,5.8c4-1.1,7-4.5,8.5-9.8l1.5-5.2l2.8,4.7c3.8,6.2,7.8,9.7,11.9,10.3c3.5,0.5,7.4-1.1,11.6-4.7l3.1-2.8
			l0.8,4.1c1.1,5.5,3.5,9.3,7,11.2c3.7,2,8.7,2,14.1-0.1l4.3-1.7l-1.1,4.5c-1.5,5.7-0.5,11.1,2.5,14.3c2.1,2.3,4.9,3.2,8.2,2.6
			l2.3,3.9c-2.5,3.1-3.7,8.3-2.8,12.8c0.4,2.1,1.4,4.8,4,6.3l4.1,2.2l-4.2,2c-4.8,2.4-7.8,6.3-8.1,10.7c-0.3,4,1.4,7.7,4.6,10.1
			l-1.5,4.3c-9.8-0.4-15.9,1-18.1,4.1c-1.3,1.8-1.4,4.5-0.1,8.1l-3.4,2.9c-3.3-1.7-7.3-1.5-10,0.5c-3.2,2.3-4.5,6.7-3.6,12.4l-4.1,2
			c-2.4-2.5-8-4.7-13.6-4.1c-3.1,0.3-7.3,1.7-10.1,6.3L240.2,324.3z M226.9,306.6c0.7,0,1.5,0.1,2.2,0.2c4.7,0.7,9.2,3.7,12,7.6
			c2.9-3.1,6.8-5,11.3-5.4c4.8-0.5,9.6,0.6,13.1,2.4c0.3-6.7,3.6-10.2,5.8-11.8c3-2.2,6.8-3,10.6-2.4c-0.4-3.2,0.2-5.9,1.9-8.1
			c3.3-4.5,10.2-5.8,16.5-6c-1.9-2.9-2.8-6.4-2.5-10c0.4-5.1,3.2-9.6,7.7-12.8c-1.7-1.8-2.8-4.3-3.4-7.1c-0.8-4.2-0.3-8.9,1.4-12.7
			c-3-0.4-5.7-1.9-7.9-4.2c-3.3-3.6-4.8-8.9-4.3-14.7c-5.3,1.3-10.3,0.8-14.3-1.4c-3.9-2.2-6.7-5.8-8.4-10.8
			c-4.2,2.9-8.4,4.1-12.5,3.5c-4.5-0.7-8.8-3.6-12.7-8.7c-2.8,5.5-6.9,7.7-10.1,8.6c-5.4,1.5-11.7,0.1-17.3-3.6
			c-0.4,3.4-1.9,5.6-3.4,7.1c-3.5,3.5-9.8,5-17.1,4.3c0.8,5.8-0.4,11.3-3.4,15.4c-1.7,2.3-3.8,4-6.2,5c2.2,4.7,2.2,9.7,0,13.8
			c-0.9,1.7-2.2,3.1-3.7,4.1c4.5,3.8,8.8,9,9.6,14.1c0.3,1.9,0.1,3.7-0.6,5.4c4,3,9.9,8,10.5,14.2c0.1,1.6-0.1,3.2-0.6,4.7
			c10.8,0.2,15.3,7.1,17.2,12.3C220.9,307.6,223.8,306.6,226.9,306.6z"/>
	</g>
	<path class="st1" d="M215.1,324.5L215.1,324.5C215.1,324.5,215.1,324.5,215.1,324.5c0.2,0,2.5-1.6,3.6-2c5.6-2.4,12.8-1.9,18.8-6.3
		c7.3-5.3,6.3-17.7,13.2-14.8c3.7,2,0.4,10.8-4.2,14c-11.5,4.5-13.7,10.7-15.2,17c10.6-12,15.8-7.3,19.1-10.5
		c3.6-3.6,8-18,14.4-13.4c7.1,5.7-13.5,19.6-18.5,23.8c-7.2,7.4-11.2,15.1-4.1,25.5c-0.3-6,0.5-13.6,6.2-17.6
		c6-4.3,30-15.6,34.3-23.6c3.2-7.1-15.5-19.9-13.6-23.4c1.2-2,9.5,3.9,15.1,2.3c4.4-2,9-12.2,13.9-25.1c5.6-14.7,9.2-30.7,5.5-31.9
		c-3-1.1-8.8,29.7-20.2,38.9c-2.1,1.4-5.7,3.2-7.4,0.9c-1.2-2.6,2-4.8,4.2-7.3c10.8-12.3,16.4-41.1,9.7-40.5
		c-1.4,0-1.9,6.8-4.2,13.7c-1.5,4.5-9.8,27-17.9,21.2c-1.3-1.5-2-3.1-0.6-5.1c2-2.2,3-3.1,4.6-6.4c3-6.6,1.2-12.8-5.6-16.8l0,0
		c0,0-0.1,0-0.1-0.1c0,0-0.1,0-0.1-0.1l0,0c-6.8-3.9-13.1-2.5-17.4,3.4c-2.1,3.1-2.4,4.4-3.3,7.2c-1,2.1-2.7,2.3-4.7,1.9
		c-9-4.2,6.5-22.5,9.7-26c4.9-5.3,10.6-9.1,9.9-10.4c-2.8-6.1-25.1,12.8-30.5,28.3c-1.1,3.1-1.4,7-4.3,7.3c-2.8-0.4-3-4.4-2.8-6.9
		c2.4-14.4,26.4-34.6,23.9-36.7c-2.9-2.6-15,8.4-25.1,20.4c-8.8,10.6-15.4,19.6-15,24.4c1.4,5.7,10.7,10,9.5,12
		c-2.2,3.4-22.4-6.6-27.1-0.3c-4.8,7.6-2.9,34-3.7,41.4c-0.6,6.9-6.8,11.3-12.3,14c12.5,1.1,17.2-6.2,20.2-16.1
		c1.2-6.4,3.2-31.3,11.6-27.8c7.1,3.3-3.2,14.2-4.6,19.2c-1.1,4.4,5.5,6.6,0.3,21.8c4.8-4.4,9.2-9.4,7.4-21.6
		c0.6-5.5,6.5-12.7,10.2-10.5c5.8,4.5-5.4,9.8-6.4,18.8c-0.9,7.3,3.1,13.4,3.8,19.5C215.2,321.6,215,324.4,215.1,324.5z"/>
</g>
<path class="st0" d="M909.4,346.2c4,0.5,9.4,0.9,16.6,0.9c13.1,0,23.9-3.1,30.6-9.2c6.4-5.8,10.5-14.8,10.5-26.9
	c0-11.5-4-19.6-10.5-24.9c-6.2-5.2-14.9-7.8-27.6-7.8c-7.3,0-14.2,0.5-19.7,1.4V346.2L909.4,346.2z M921.7,288.6
	c1.7-0.4,4.5-0.7,8.4-0.7c15.4,0,24.1,8.5,24,23.5c0,17.2-9.5,26-25.6,25.9c-2.5,0-5.1,0-6.8-0.3V288.6L921.7,288.6z M1018.8,325.4
	c0.2-1.1,0.4-2.9,0.4-5.2c0-10.7-5.1-23.8-21.1-23.8c-15.6,0-23.9,12.7-23.9,26.3c0,14.9,9.3,24.8,25.2,24.8c7,0,12.8-1.4,17.1-3.1
	l-1.8-8.5c-3.7,1.4-7.8,2.2-13.5,2.2c-7.8,0-14.8-3.8-15-12.6H1018.8L1018.8,325.4z M986.1,316.8c0.5-5,3.7-11.9,11.3-11.9
	c8.2,0,10.2,7.4,10.1,11.9H986.1L986.1,316.8z M1029.2,346.4h12.4V275h-12.4V346.4L1029.2,346.4z M1067.4,346.4v-48.8h-12.4v48.8
	H1067.4L1067.4,346.4z M1061.2,277.2c-4.1,0-6.9,2.9-6.9,6.7c0,3.7,2.7,6.6,6.8,6.6c4.3,0,7-2.9,7-6.6
	C1068,280.1,1065.4,277.2,1061.2,277.2L1061.2,277.2z M1075.1,297.5l18.2,48.8h12.1l18.7-48.8h-13l-7.7,24.8
	c-1.3,4.4-2.4,8.2-3.3,12.2h-0.3c-0.9-4-1.9-7.9-3.3-12.2l-7.9-24.8H1075.1L1075.1,297.5z M1171.7,325.4c0.2-1.1,0.4-2.9,0.4-5.2
	c0-10.7-5.1-23.8-21.1-23.8c-15.6,0-23.9,12.7-23.9,26.3c0,14.9,9.3,24.8,25.2,24.8c7,0,12.8-1.4,17.1-3.1l-1.8-8.5
	c-3.7,1.4-7.8,2.2-13.5,2.2c-7.8,0-14.8-3.8-15.1-12.6H1171.7L1171.7,325.4z M1139,316.8c0.5-5,3.7-11.9,11.3-11.9
	c8.2,0,10.2,7.4,10.1,11.9H1139L1139,316.8z M1182,346.4h12.3v-25.3c0-1.4,0.2-2.7,0.4-3.8c1.1-5.5,5.1-9.3,11-9.3
	c1.5,0,2.6,0.2,3.6,0.4v-11.6c-1-0.2-1.7-0.3-2.9-0.3c-5.2,0-10.9,3.5-13.3,10.4h-0.4l-0.4-9.3h-10.7c0.3,4.4,0.4,9.1,0.4,15.7
	V346.4L1182,346.4z M1230.2,346.4v-48.8h-12.4v48.8H1230.2L1230.2,346.4z M1224,277.2c-4.1,0-6.9,2.9-6.9,6.7c0,3.7,2.7,6.6,6.8,6.6
	c4.3,0,7-2.9,7-6.6C1230.8,280.1,1228.2,277.2,1224,277.2L1224,277.2z M1243.4,346.4h12.4v-28.7c0-1.4,0.1-2.9,0.5-4
	c1.3-3.7,4.7-7.2,9.6-7.2c6.7,0,9.3,5.3,9.3,12.3v27.6h12.3v-29c0-15.4-8.8-21-17.4-21c-8.1,0-13.4,4.6-15.5,8.4h-0.3l-0.6-7.3H1243
	c0.3,4.2,0.4,8.9,0.4,14.5V346.4L1243.4,346.4z M1345,311.6c0-6.7,0.2-10.7,0.4-14h-10.7l-0.5,6.5h-0.2c-2.3-4-6.7-7.6-14.1-7.6
	c-11.7,0-22.2,9.7-22.2,25.8c0,13.8,8.6,23.9,20.8,23.9c6.4,0,11.4-2.9,14.2-7.2h0.2v4.2c0,10.6-6,14.8-14,14.8
	c-5.9,0-11.1-1.9-14.2-3.7l-2.7,9.3c4.2,2.6,10.8,3.9,17.1,3.9c6.7,0,13.7-1.4,18.9-5.9c5.1-4.6,7.2-11.9,7.2-22.2V311.6L1345,311.6
	z M1332.7,325c0,1.4-0.2,3.1-0.5,4.4c-1.4,4.4-5.4,7.4-10,7.4c-7.7,0-11.9-6.7-11.9-15c0-9.9,5.1-16,12-16c5.2,0,8.7,3.4,10,7.9
	c0.3,1,0.4,2.2,0.4,3.3V325L1332.7,325z M1381.1,288.5v9h-7v9.2h7v23c0,6.4,1.2,10.8,3.8,13.6c2.3,2.5,6.1,4.1,10.6,4.1
	c3.9,0,7.1-0.6,8.9-1.3l-0.2-9.4c-1.4,0.4-2.5,0.6-4.8,0.6c-4.7,0-6.3-3.1-6.3-9v-21.6h11.7v-9.2h-11.7V285L1381.1,288.5
	L1381.1,288.5z M1414.2,346.4h12.4v-29.2c0-1.4,0.1-2.7,0.5-3.7c1.3-3.7,4.7-6.9,9.5-6.9c6.8,0,9.4,5.3,9.4,12.4v27.4h12.3v-28.8
	c0-15.6-8.7-21.2-17.1-21.2c-3.1,0-6,0.8-8.4,2.2c-2.5,1.3-4.6,3.3-6.1,5.6h-0.2V275h-12.4V346.4L1414.2,346.4z M1513.1,325.4
	c0.2-1.1,0.4-2.9,0.4-5.2c0-10.7-5.1-23.8-21.1-23.8c-15.6,0-23.9,12.7-23.9,26.3c0,14.9,9.3,24.8,25.2,24.8c7,0,12.8-1.4,17.1-3.1
	l-1.8-8.5c-3.7,1.4-7.8,2.2-13.5,2.2c-7.8,0-14.7-3.8-15-12.6H1513.1L1513.1,325.4z M1480.4,316.8c0.5-5,3.7-11.9,11.3-11.9
	c8.2,0,10.2,7.4,10.1,11.9H1480.4L1480.4,316.8z M1570.6,346.4l23.4-67.6h-13.1l-9.8,30.9c-2.7,8.2-5.1,16.5-6.9,24.5h-0.2
	c-1.8-8.2-4-16.2-6.6-24.7l-9.2-30.7h-13.4l21.9,67.6H1570.6L1570.6,346.4z M1634.9,317v17.7c0,4.4,0.2,8.7,0.7,11.7h-11.1l-0.8-5.4
	h-0.3c-3,3.8-8.1,6.5-14.4,6.5c-9.8,0-15.3-7.1-15.3-14.6c0-12.3,10.9-18.6,29-18.5v-0.8c0-3.2-1.3-8.5-9.9-8.5
	c-4.8,0-9.8,1.5-13.1,3.6l-2.4-8c3.6-2.2,9.9-4.3,17.7-4.3C1630.4,296.4,1634.9,306.3,1634.9,317L1634.9,317z M1622.9,329.2v-6.7
	c-8.7-0.2-17.1,1.7-17.1,9.1c0,4.8,3.1,7,7,7c4.9,0,8.5-3.2,9.6-6.7C1622.8,331,1622.9,330,1622.9,329.2L1622.9,329.2z M1648,346.4
	h12.4V275H1648V346.4L1648,346.4z M1717.5,297.5h-12.3V327c0,1.4-0.3,2.7-0.7,3.8c-1.3,3.1-4.5,6.6-9.4,6.6c-6.5,0-9.1-5.2-9.1-13.3
	v-26.6h-12.3v28.7c0,16,8.1,21.3,17.1,21.3c8.7,0,13.5-5,15.6-8.5h0.2l0.6,7.4h10.8c-0.2-4-0.4-8.8-0.4-14.6V297.5L1717.5,297.5z
	 M1772.3,325.4c0.2-1.1,0.4-2.9,0.4-5.2c0-10.7-5.1-23.8-21.1-23.8c-15.6,0-23.9,12.7-23.9,26.3c0,14.9,9.3,24.8,25.2,24.8
	c7,0,12.8-1.4,17.1-3.1l-1.8-8.5c-3.7,1.4-7.8,2.2-13.5,2.2c-7.8,0-14.7-3.8-15-12.6H1772.3L1772.3,325.4z M1739.6,316.8
	c0.5-5,3.7-11.9,11.3-11.9c8.2,0,10.2,7.4,10.1,11.9H1739.6L1739.6,316.8z M1825.5,296.4c-14.8,0-25.3,9.8-25.3,25.9
	c0,15.6,10.6,25.2,24.5,25.2c12.4,0,25.1-8,25.1-26C1849.8,306.6,1840.1,296.4,1825.5,296.4L1825.5,296.4z M1825.2,305.4
	c8.4,0,11.8,8.7,11.8,16.4c0,9.8-4.9,16.8-11.9,16.8c-7.5,0-12.1-7.1-12.1-16.6C1813,313.9,1816.5,305.4,1825.2,305.4L1825.2,305.4z
	 M1873.7,346.4v-39.6h10.6v-9.2h-10.7V295c0-6,2.1-11.1,8.2-11.1c2.2,0,3.9,0.4,5.2,0.9l0.9-9.5c-2-0.7-4.6-1.2-7.9-1.2
	c-4.2,0-9.1,1.3-12.7,4.7c-4.2,4-5.9,10.3-5.9,16.7v2.1h-6.6v9.2h6.6v39.6H1873.7L1873.7,346.4z M1922.1,346.4h12.3v-57.3h19.5
	v-10.3h-51.1v10.3h19.3V346.4L1922.1,346.4z M1995.1,325.4h-32.7c0.3,8.8,7.2,12.6,15.1,12.6c5.7,0,9.8-0.8,13.5-2.2l1.8,8.5
	c-4.2,1.7-10,3.1-17.1,3.1c-15.9,0-25.2-9.8-25.2-24.8c0-13.5,8.2-26.3,23.9-26.3c16,0,21.1,13,21.1,23.8
	C1995.5,322.5,1995.3,324.3,1995.1,325.4L1995.1,325.4z M1962.4,316.8h21.5c0.1-4.5-1.9-11.9-10.1-11.9
	C1966.1,304.8,1962.9,311.8,1962.4,316.8L1962.4,316.8z M2039.6,335.7c-2.4,1-5.4,1.9-9.7,1.9c-8.4,0-14.9-5.7-14.9-15.7
	c-0.1-8.9,5.5-15.9,14.9-15.9c4.4,0,7.3,1,9.3,1.9l2.2-9.2c-2.8-1.3-7.4-2.3-11.9-2.3c-17.2,0-27.2,11.4-27.2,26.1
	c0,15.1,9.9,25,25.2,25c6.1,0,11.2-1.4,13.8-2.6L2039.6,335.7L2039.6,335.7z M2050.4,346.4h12.4v-29.2c0-1.4,0.1-2.7,0.5-3.7
	c1.3-3.7,4.7-6.9,9.5-6.9c6.8,0,9.4,5.3,9.4,12.4v27.4h12.3v-28.8c0-15.6-8.7-21.2-17.1-21.2c-3.1,0-6,0.8-8.4,2.2
	c-2.5,1.3-4.6,3.3-6.1,5.6h-0.2V275h-12.4V346.4L2050.4,346.4z M2107.8,346.4h12.4v-28.7c0-1.4,0.1-2.9,0.5-4
	c1.3-3.7,4.7-7.2,9.6-7.2c6.7,0,9.3,5.3,9.3,12.3v27.6h12.3v-29c0-15.4-8.8-21-17.4-21c-8.1,0-13.4,4.6-15.5,8.4h-0.3l-0.6-7.3
	h-10.8c0.3,4.2,0.4,8.9,0.4,14.5V346.4L2107.8,346.4z M2187.4,296.4c-14.7,0-25.3,9.8-25.3,25.9c0,15.6,10.6,25.2,24.5,25.2
	c12.4,0,25.1-8,25.1-26C2211.6,306.6,2201.9,296.4,2187.4,296.4L2187.4,296.4z M2187.1,305.4c8.4,0,11.8,8.7,11.8,16.4
	c0,9.8-4.9,16.8-11.9,16.8c-7.5,0-12.1-7.1-12.1-16.6C2174.8,313.9,2178.3,305.4,2187.1,305.4L2187.1,305.4z M2221.8,346.4h12.4V275
	h-12.4V346.4L2221.8,346.4z M2269.7,296.4c-14.8,0-25.3,9.8-25.3,25.9c0,15.6,10.6,25.2,24.5,25.2c12.4,0,25.1-8,25.1-26
	C2294,306.6,2284.3,296.4,2269.7,296.4L2269.7,296.4z M2269.4,305.4c8.4,0,11.8,8.7,11.8,16.4c0,9.8-4.9,16.8-11.9,16.8
	c-7.5,0-12.1-7.1-12.1-16.6C2257.2,313.9,2260.7,305.4,2269.4,305.4L2269.4,305.4z M2348.4,311.6c0-6.7,0.2-10.7,0.4-14H2338
	l-0.5,6.5h-0.2c-2.3-4-6.7-7.6-14.1-7.6c-11.7,0-22.2,9.7-22.2,25.8c0,13.8,8.6,23.9,20.8,23.9c6.4,0,11.4-2.9,14.2-7.2h0.2v4.2
	c0,10.6-6,14.8-14,14.8c-5.9,0-11.1-1.9-14.2-3.7l-2.7,9.3c4.2,2.6,10.8,3.9,17.1,3.9c6.7,0,13.7-1.4,18.9-5.9
	c5.1-4.6,7.2-11.9,7.2-22.2V311.6L2348.4,311.6z M2336,325c0,1.4-0.2,3.1-0.5,4.4c-1.4,4.4-5.4,7.4-10,7.4c-7.7,0-11.9-6.7-11.9-15
	c0-9.9,5.1-16,12-16c5.2,0,8.7,3.4,10,7.9c0.3,1,0.4,2.2,0.4,3.3V325L2336,325z M2355.8,297.5l17.9,44.8c0.6,1.2,0.7,1.9,0.7,2.4
	c0,0.6-0.3,1.3-0.8,2.2c-1.7,3.3-4.4,6.2-6.7,7.7c-2.5,1.8-5.1,2.9-7.2,3.4l2.8,10.4c3.1-0.4,8.1-2,12.9-6.3
	c5.8-5,10.3-13.1,17.1-31.4l12.2-33.2h-13.2l-7.6,26c-0.9,3.2-1.8,6.8-2.6,9.6h-0.3c-0.7-2.8-1.7-6.5-2.7-9.5l-8.8-26.1H2355.8z"/>
<linearGradient id="SVGID_1_" gradientUnits="userSpaceOnUse" x1="1301.979" y1="161.2207" x2="1301.979" y2="244.8147">
	<stop  offset="0" style="stop-color:#254668"/>
	<stop  offset="1" style="stop-color:#0079BB"/>
</linearGradient>
<path class="st2" d="M623.1,160.6H575l5.6-28.9h51l4.8-24.7h-80.1l-25.7,135.2h82.9l4.6-24.7h-54l6.2-32.7h48.2L623.1,160.6
	L623.1,160.6z M660.6,242.3h-28.9L659,99.8h28.9L660.6,242.3L660.6,242.3z M763.4,215.8c-7.8,3.8-16.9,6.2-27.5,6.2
	c-8.4,0-15-2.6-18.9-7.6c-2-2.8-3-7.2-3-10c39.3,1,63.6-8,63.6-33.1c0-18.3-14.2-29.3-34.1-29.3c-35.5,0-57.2,31.1-57.2,61
	c0,25.5,14.4,41.6,42.5,41.6c10.8,0,25.1-2,36.5-7.9L763.4,215.8L763.4,215.8z M750.6,171.4c0,8.8-11.2,12-33.7,11.8
	c2-9.2,9.6-20.3,23.1-20.3c6.6,0,10.6,3.4,10.6,8.2V171.4L750.6,171.4z M782.2,278c6.6,3.8,18.9,6.2,31.9,6.2c13,0,27.3-2.6,37.9-11
	c11.8-9.4,17.3-25.5,20.7-43.6l14.8-80.9c-10.2-4.4-22.5-6.8-36.3-6.8c-42.7,0-65.8,32.1-65.8,64.6c0.2,19.1,12,34.9,31.5,34.9
	c11.6,0,20.5-4.6,28.1-14.4h0.4l-1.6,8.2c-4,19.7-14.8,26.1-29.3,26.1c-8.2,0-20.3-2.2-25.7-5.4L782.2,278L782.2,278z M851.2,192.1
	c-3,16.7-12.6,27.1-22.1,27.1c-8.8,0-13.2-7.2-13.2-17.1c0-18.7,12.4-38.1,29.9-38.1c4,0,8.2,0.8,10.4,1.8L851.2,192.1L851.2,192.1z
	 M982.8,242.3c-0.4-12.2,1.4-31.5,3.8-44.1l10.4-51.4c-8.2-2.6-20.9-4.8-32.5-4.8c-48.4,0-70.2,35.3-70.2,68.4
	c0,20.5,12,34.1,29.7,34.1c11.4,0,23.9-5.4,32.9-21.7h0.6c-0.6,7-1.2,13.6-1.4,19.5H982.8L982.8,242.3z M959.9,187.3
	c-4.4,24.1-15,33.9-23.7,33.9c-8,0-11.8-6.6-11.8-16.2c0-18.3,13.6-41.1,32.3-41.1c2.8,0,5.6,0.4,7.8,0.8L959.9,187.3L959.9,187.3z
	 M1031.4,242.3l8.2-43.5c4-21.7,15-33.5,24.5-33.5c7.2,0,9.6,4.8,9.6,11.6c0,3.6-0.4,7.6-1,11l-10.2,54.4h28.9l10.8-57
	c0.8-4.8,1.6-12.2,1.6-16.7c0-16.8-9-26.7-25.1-26.7c-13,0-25.3,5.6-34.5,18.5h-0.4l2-16.2h-25.7c-1.2,8.6-2.8,19.5-5.2,31.9
	l-12.4,66.2H1031.4L1031.4,242.3z M1139.7,125.7l-3.6,18.5h-12.6l-4,21.9h12.4l-7.6,38.9c-1.4,7.6-2,12.8-2,18.3
	c0,12.2,8.2,21.3,25.5,21.3c6.2,0,13.4-0.8,17.1-2.2l3.4-22.7c-2.6,0.4-5.4,0.4-8,0.4c-6.2,0-8.2-3.4-8.2-8.2
	c0-3.4,0.8-8.6,1.6-12.4l6.6-33.3h20.9l4.2-21.9h-20.9l5-26.7L1139.7,125.7L1139.7,125.7z M1363,242.3l18.3-135.2h-39.1l-25.1,51.4
	c-5.8,12.2-13,28.1-18.3,43.1h-0.8c-0.2-15-1.6-30.5-2.4-43.1l-4.2-51.4h-38.7l-33.9,135.2h26.5l13.4-55.8
	c3.4-14.4,7.4-34.9,11.2-52.8h0.4c0.8,18.1,1.8,36.7,3,51.6l4.8,54.8h22.5l27.7-55.4c7.4-14.8,15.9-33.5,23.3-51h0.6
	c-3.8,19.5-6.8,38.1-9,52.8l-8.2,55.8H1363L1363,242.3z M1412.9,242.3l18.7-98.1h-28.9l-18.7,98.1H1412.9L1412.9,242.3z
	 M1420.7,131.9c9.2,0,17.1-6,17.1-16.3c0-8.6-6-14.2-14.4-14.2c-8.8,0-16.5,6.6-16.7,16.4c0,8.6,6,14,13.8,14H1420.7L1420.7,131.9z
	 M1507.9,217.2c-5,2-11,4-19.5,4c-10.8,0-19.3-6.8-19.3-20.3c0-18.5,12.6-35.9,33.3-35.9c5.8,0,9.8,1,13.2,2.4l7-22.3
	c-4.2-1.6-11.4-3.2-19.9-3.2c-37.3,0-64,27.3-64,62.2c0,25.5,17.1,40.4,41.3,40.4c11.6,0,21.7-2.2,27.9-5.2L1507.9,217.2
	L1507.9,217.2z M1551,242.3h-28.9l11-58.4c2.8-14.8,4-31.3,5-39.7h25.1c-0.6,6.6-1.2,13.2-1.8,20.1h0.6c6.8-13,17.9-22.3,31.3-22.3
	c1.8,0,3.6,0,5.4,0.2l-5.6,28.1c-1.4,0-3-0.2-4.6-0.2c-18.4,0-27.1,16.4-30.7,35.7L1551,242.3L1551,242.3z M1656.8,142
	c-34.9,0-58.6,27.9-58.6,62c0,24.3,16.7,40.6,41.5,40.6c34.1,0,58.6-26.3,58.6-62.2C1698.4,160,1683.1,142,1656.8,142L1656.8,142z
	 M1653,163.8c11.6,0,15.5,9.6,15.5,18.7c0,16.9-8.8,39.9-24.7,39.9c-10,0-15.6-7.6-15.6-19.1C1627.9,188.1,1636.4,163.8,1653,163.8
	L1653,163.8z M1758.7,242.3l23.1-54.8c6.8-16.5,11.4-31.1,16.4-45.5h0.4c-0.8,15.2-1.2,28.9-1.2,44.9l1,55.4h31.5l59.6-135.2h-30.3
	l-23.5,60.2c-5.2,14.4-10.2,29.1-14.8,43.1h-0.4c0.6-13.2,1-26.7,1.2-42.9l0.4-60.4h-31.7l-24.3,60.6c-6.2,16.5-11.2,30.1-15.8,43.3
	h-0.4c0.4-12,0.6-27.5,0.8-43.9l-0.2-60h-29.1l5.2,135.2H1758.7L1758.7,242.3z M1949.8,215.8l2,20.9c-11.4,5.9-25.7,7.9-36.5,7.9
	c-28.1,0-42.5-16.1-42.5-41.6c0-29.9,21.7-61,57.2-61c19.9,0,34.1,11,34.1,29.3c0,25.1-24.3,34.1-63.6,33.1c0,2.8,1,7.2,3,10
	c3.8,5,10.4,7.6,18.9,7.6C1932.9,222,1942,219.6,1949.8,215.8L1949.8,215.8z M1937,171.4v-0.2c0-4.8-4-8.2-10.6-8.2
	c-13.4,0-21.1,11-23.1,20.3C1925.7,183.5,1937,180.3,1937,171.4L1937,171.4z M1995.5,99.8l-19.9,99.1c-1.2,6-2.2,12-2.2,18.1
	c0,17.5,11.6,27.5,34.9,27.5c44.1,0,65-36.5,65-68.4c0-17.5-9.2-34.1-29.7-34.1c-12,0-23.1,5.2-30.3,13.8h-0.4l11.6-56H1995.5
	L1995.5,99.8z M2006.1,192.9c3.4-17.1,13.6-27.7,24.1-27.7c8.8,0,12.8,7.4,12.8,17.1c0,17.1-12,40.3-28.7,40.3
	c-6.6,0-10.8-3.8-11-10.8c-0.2-4.2,0.4-7.6,1-10.8L2006.1,192.9z"/>
</svg>
