<?xml version="1.0" encoding="utf-8"?>
<!-- Generator: Adobe Illustrator 16.0.0, SVG Export Plug-In . SVG Version: 6.00 Build 0)  -->
<!DOCTYPE svg PUBLIC "-//W3C//DTD SVG 1.1//EN" "http://www.w3.org/Graphics/SVG/1.1/DTD/svg11.dtd">
<svg version="1.1" id="Layer_1" xmlns="http://www.w3.org/2000/svg" xmlns:xlink="http://www.w3.org/1999/xlink" x="0px" y="0px"
	 width="190px" height="40px" viewBox="0 0 190 40" enable-background="new 0 0 190 40" xml:space="preserve">
<g id="Layer_x0020_1">
	<g id="Infosenseglobal.cdr">
		<g>
			
				<linearGradient id="SVGID_1_" gradientUnits="userSpaceOnUse" x1="9060.1484" y1="25872.332" x2="10231.7031" y2="25872.332" gradientTransform="matrix(0.0285 0 0 0.0285 -255.9456 -716.4311)">
				<stop  offset="0" style="stop-color:#0068B1"/>
				<stop  offset="0.0118" style="stop-color:#03559D"/>
				<stop  offset="0.502" style="stop-color:#FEFEFE"/>
				<stop  offset="1" style="stop-color:#03559D"/>
			</linearGradient>
			<path fill="url(#SVGID_1_)" d="M35.785,38.289l-0.07-0.041C24.193,31.324-7.456,12.113,23.438,5.219
				c5.271-1.18,5.504-1.592,5.504-1.592s-8.286-0.605-17.075,2.166C3.088,8.566,0.688,14.292,3.53,22.223
				c1.462,4.082,6.582,10.727,11.925,16.066H35.785z"/>
			<polygon fill="#03559D" points="26.069,1.056 28.538,3.737 26.594,6.377 34.254,3.566 			"/>
			<path fill="#03559D" d="M35.957,38.391l-0.242-0.143C24.194,31.324-7.455,12.112,23.439,5.217
				c5.271-1.178,5.503-1.592,5.503-1.592s-8.286-0.604-17.075,2.168C3.088,8.565,0.689,14.29,3.531,22.223
				c1.462,4.082,6.582,10.725,11.925,16.066L35.957,38.391z"/>
			<g>
				<polygon fill="#03559D" points="26.069,1.056 28.538,3.737 26.594,6.377 34.254,3.566 				"/>
				<path fill="#03559D" d="M34.858,38.381l-0.081-0.041C23.266,31.414-8.383,12.204,22.51,5.299
					c5.262-1.17,5.504-1.582,5.504-1.582s-8.285-0.605-17.074,2.166C2.149,8.655-0.238,14.37,2.594,22.313
					c1.461,4.082,6.592,10.727,11.934,16.066h20.331V38.381z"/>
			</g>
		</g>
		<path fill="#03559D" d="M30.141,21.215h-2.207V8.303h2.207V21.215z M43.688,21.215H41.48v-7.347c0-0.596-0.031-1.148-0.092-1.664
			c-0.061-0.514-0.162-0.927-0.332-1.229c-0.172-0.322-0.424-0.564-0.746-0.727c-0.322-0.151-0.767-0.231-1.321-0.231
			c-0.544,0-1.108,0.142-1.692,0.435c-0.584,0.282-1.15,0.666-1.714,1.129v9.634h-2.208V8.303h2.208v1.431
			c0.665-0.575,1.31-1.019,1.955-1.319c0.646-0.313,1.32-0.463,2.026-0.463c1.301,0,2.308,0.412,3.033,1.25
			c0.727,0.836,1.09,2.045,1.09,3.639V21.215L43.688,21.215z M53.686,5.31h-0.11c-0.202-0.071-0.474-0.142-0.847-0.202
			c-0.373-0.07-0.696-0.102-0.988-0.102c-0.928,0-1.594,0.211-1.984,0.625C49.352,6.043,49.16,6.79,49.16,7.87v0.432h3.648v1.805
			H49.23v11.107h-2.207V10.107h-1.492V8.303h1.492V7.879c0-1.551,0.383-2.74,1.139-3.547s1.846-1.22,3.266-1.22
			c0.403,0,0.807,0.021,1.189,0.071c0.395,0.04,0.756,0.091,1.068,0.141V5.31L53.686,5.31z M64.995,14.763
			c0,2.178-0.534,3.851-1.593,5.03c-1.068,1.189-2.489,1.773-4.253,1.773c-1.825,0-3.257-0.604-4.304-1.824
			c-1.049-1.229-1.572-2.883-1.572-4.979c0-2.156,0.544-3.83,1.623-5.029c1.068-1.189,2.488-1.783,4.253-1.783
			c1.764,0,3.185,0.594,4.253,1.783C64.461,10.922,64.995,12.607,64.995,14.763z M62.717,14.763c0-1.673-0.313-2.913-0.927-3.72
			c-0.614-0.815-1.502-1.219-2.641-1.219c-1.15,0-2.036,0.403-2.662,1.219c-0.625,0.808-0.937,2.047-0.937,3.72
			c0,1.612,0.313,2.843,0.937,3.68c0.625,0.836,1.512,1.25,2.662,1.25c1.128,0,2.016-0.403,2.631-1.229
			C62.405,17.646,62.717,16.417,62.717,14.763z M70.801,21.525c-0.877,0-1.692-0.119-2.459-0.352
			c-0.756-0.232-1.391-0.475-1.896-0.736v-2.439h0.121c0.182,0.141,0.403,0.303,0.666,0.483c0.252,0.183,0.585,0.363,1.008,0.554
			c0.383,0.172,0.796,0.323,1.24,0.454c0.452,0.132,0.917,0.191,1.409,0.191c0.354,0,0.727-0.04,1.119-0.121
			c0.403-0.081,0.696-0.183,0.897-0.302c0.272-0.182,0.463-0.363,0.594-0.564c0.121-0.201,0.183-0.504,0.183-0.908
			c0-0.514-0.151-0.906-0.434-1.168c-0.281-0.263-0.787-0.474-1.521-0.656c-0.271-0.07-0.646-0.15-1.1-0.241
			c-0.453-0.091-0.877-0.192-1.26-0.302c-0.998-0.282-1.723-0.727-2.177-1.321s-0.687-1.32-0.687-2.167
			c0-1.16,0.444-2.107,1.34-2.844c0.889-0.734,2.078-1.098,3.56-1.098c0.726,0,1.461,0.09,2.198,0.262
			c0.734,0.182,1.35,0.402,1.854,0.676v2.318h-0.121c-0.563-0.435-1.188-0.787-1.885-1.039c-0.686-0.252-1.391-0.384-2.098-0.384
			c-0.725,0-1.34,0.151-1.834,0.454c-0.504,0.303-0.756,0.756-0.756,1.361c0,0.544,0.151,0.947,0.443,1.209s0.776,0.484,1.432,0.654
			c0.332,0.082,0.695,0.172,1.099,0.252s0.827,0.17,1.271,0.283c0.978,0.23,1.703,0.635,2.197,1.188
			c0.483,0.554,0.727,1.312,0.727,2.258c0,0.563-0.111,1.089-0.334,1.583c-0.221,0.494-0.543,0.917-0.978,1.28
			c-0.464,0.381-0.998,0.676-1.592,0.875C72.434,21.426,71.698,21.525,70.801,21.525z M83.682,21.508
			c-2.086,0-3.709-0.574-4.869-1.734c-1.148-1.159-1.723-2.802-1.723-4.938c0-2.107,0.555-3.78,1.672-5.021
			c1.119-1.239,2.582-1.864,4.396-1.864c0.807,0,1.531,0.11,2.156,0.344c0.625,0.23,1.17,0.595,1.644,1.088
			c0.474,0.494,0.827,1.099,1.078,1.804c0.252,0.716,0.373,1.592,0.373,2.62v1.18h-9.081c0,1.501,0.382,2.65,1.148,3.438
			c0.766,0.796,1.834,1.199,3.185,1.199c0.483,0,0.958-0.061,1.421-0.162c0.465-0.109,0.887-0.252,1.26-0.424
			c0.403-0.17,0.735-0.341,1.008-0.513c0.271-0.161,0.504-0.321,0.686-0.464h0.132v2.369c-0.263,0.101-0.585,0.222-0.968,0.373
			s-0.727,0.271-1.027,0.354c-0.435,0.111-0.816,0.201-1.17,0.262C84.65,21.477,84.217,21.508,83.682,21.508z M86.264,13.323
			c-0.012-0.585-0.082-1.088-0.213-1.521c-0.121-0.413-0.302-0.776-0.533-1.068c-0.262-0.322-0.594-0.575-0.998-0.746
			c-0.404-0.162-0.897-0.252-1.492-0.252c-0.584,0-1.088,0.092-1.502,0.262c-0.403,0.172-0.786,0.434-1.118,0.756
			c-0.333,0.343-0.575,0.715-0.746,1.129c-0.171,0.412-0.283,0.887-0.332,1.44L86.264,13.323L86.264,13.323z M100.948,21.215h-2.206
			v-7.347c0-0.596-0.031-1.148-0.091-1.664c-0.062-0.514-0.162-0.927-0.332-1.229c-0.183-0.322-0.435-0.564-0.747-0.727
			c-0.322-0.151-0.766-0.231-1.32-0.231c-0.545,0-1.109,0.142-1.693,0.435c-0.584,0.282-1.148,0.666-1.713,1.129v9.634h-2.207V8.303
			h2.207v1.431c0.666-0.575,1.311-1.019,1.955-1.319c0.646-0.313,1.321-0.463,2.026-0.463c1.29,0,2.308,0.412,3.034,1.25
			c0.727,0.836,1.088,2.045,1.088,3.639L100.948,21.215L100.948,21.215z M107.59,21.525c-0.875,0-1.693-0.119-2.459-0.352
			c-0.757-0.232-1.391-0.475-1.896-0.736v-2.439h0.12c0.182,0.141,0.404,0.303,0.666,0.483c0.253,0.183,0.584,0.363,1.008,0.554
			c0.385,0.172,0.797,0.323,1.24,0.454c0.453,0.132,0.916,0.191,1.41,0.191c0.354,0,0.727-0.04,1.119-0.121
			c0.403-0.081,0.696-0.183,0.897-0.302c0.271-0.182,0.463-0.363,0.594-0.564c0.121-0.201,0.183-0.504,0.183-0.908
			c0-0.514-0.15-0.906-0.435-1.168c-0.282-0.263-0.786-0.474-1.521-0.656c-0.272-0.07-0.646-0.15-1.1-0.241
			s-0.877-0.192-1.259-0.302c-0.999-0.282-1.726-0.727-2.179-1.321c-0.454-0.595-0.686-1.32-0.686-2.167
			c0-1.16,0.443-2.107,1.34-2.844c0.897-0.734,2.078-1.098,3.56-1.098c0.726,0,1.461,0.09,2.196,0.262
			c0.735,0.182,1.352,0.402,1.854,0.676v2.318h-0.122c-0.563-0.435-1.188-0.787-1.885-1.039c-0.686-0.252-1.391-0.384-2.098-0.384
			c-0.725,0-1.338,0.151-1.832,0.454c-0.504,0.303-0.758,0.756-0.758,1.361c0,0.544,0.151,0.947,0.443,1.209
			c0.293,0.262,0.775,0.484,1.432,0.654c0.334,0.082,0.696,0.172,1.1,0.252c0.402,0.08,0.826,0.17,1.271,0.283
			c0.977,0.23,1.703,0.635,2.197,1.188c0.482,0.554,0.725,1.312,0.725,2.258c0,0.563-0.11,1.089-0.332,1.583
			s-0.545,0.917-0.978,1.28c-0.466,0.381-0.999,0.676-1.594,0.875C109.223,21.426,108.488,21.525,107.59,21.525z M120.473,21.508
			c-2.088,0-3.709-0.574-4.869-1.734c-1.148-1.159-1.725-2.802-1.725-4.938c0-2.107,0.557-3.78,1.674-5.021
			c1.119-1.239,2.58-1.864,4.396-1.864c0.808,0,1.532,0.11,2.157,0.344c0.623,0.23,1.18,0.595,1.643,1.088
			c0.475,0.494,0.826,1.099,1.079,1.804c0.252,0.716,0.372,1.592,0.372,2.62v1.18h-9.081c0,1.501,0.384,2.65,1.149,3.438
			c0.766,0.796,1.832,1.199,3.186,1.199c0.482,0,0.957-0.061,1.421-0.162c0.464-0.109,0.888-0.252,1.259-0.424
			c0.404-0.17,0.737-0.341,1.008-0.513c0.273-0.161,0.506-0.321,0.688-0.464h0.131v2.369c-0.263,0.101-0.585,0.222-0.968,0.373
			c-0.382,0.15-0.728,0.271-1.028,0.354c-0.434,0.111-0.815,0.201-1.168,0.262C121.44,21.477,121.006,21.508,120.473,21.508z
			 M123.051,13.323c-0.008-0.585-0.08-1.088-0.211-1.521c-0.121-0.413-0.302-0.776-0.535-1.068
			c-0.261-0.322-0.584-0.575-0.996-0.746c-0.403-0.162-0.897-0.252-1.491-0.252c-0.585,0-1.089,0.092-1.503,0.262
			c-0.402,0.172-0.786,0.434-1.117,0.756c-0.332,0.343-0.575,0.715-0.746,1.129c-0.171,0.412-0.283,0.887-0.333,1.44L123.051,13.323
			L123.051,13.323z M135.319,17.708v-7.076c-0.544-0.262-1.06-0.455-1.522-0.564c-0.463-0.111-0.928-0.171-1.391-0.171
			c-1.119,0-1.995,0.413-2.641,1.22s-0.957,1.965-0.957,3.477c0,1.433,0.242,2.521,0.727,3.267c0.492,0.746,1.289,1.118,2.377,1.118
			c0.575,0,1.16-0.109,1.764-0.332C134.29,18.422,134.835,18.11,135.319,17.708z M127.901,23.281
			c0.149,0.061,0.36,0.141,0.655,0.242c0.291,0.109,0.625,0.201,0.986,0.303c0.403,0.1,0.786,0.18,1.131,0.24
			c0.342,0.061,0.713,0.092,1.127,0.092c0.676,0,1.25-0.092,1.724-0.262c0.476-0.184,0.848-0.424,1.108-0.746
			c0.264-0.314,0.435-0.676,0.534-1.1c0.103-0.414,0.151-0.889,0.151-1.424V19.5c-0.596,0.504-1.18,0.888-1.742,1.126
			c-0.576,0.244-1.292,0.365-2.146,0.365c-1.504,0-2.692-0.554-3.58-1.643c-0.877-1.089-1.319-2.661-1.319-4.718
			c0-1.068,0.151-2.017,0.454-2.842c0.302-0.828,0.715-1.533,1.24-2.107c0.492-0.555,1.066-0.988,1.74-1.29
			c0.676-0.292,1.372-0.443,2.088-0.443c0.688,0,1.271,0.081,1.774,0.232c0.493,0.161,0.987,0.383,1.491,0.675l0.131-0.555h2.076
			v11.439c0,2.189-0.483,3.8-1.452,4.818c-0.978,1.027-2.459,1.543-4.454,1.543c-0.636,0-1.3-0.063-1.965-0.152
			c-0.666-0.102-1.291-0.24-1.876-0.412v-2.258h0.123V23.281z M142.969,21.215h-2.207V3.233h2.207V21.215z M156.999,14.763
			c0,2.178-0.534,3.851-1.593,5.03c-1.067,1.189-2.489,1.773-4.253,1.773c-1.825,0-3.255-0.604-4.306-1.824
			c-1.047-1.229-1.563-2.883-1.563-4.979c0-2.156,0.535-3.83,1.613-5.029c1.067-1.189,2.49-1.783,4.254-1.783
			s3.186,0.594,4.253,1.783C156.465,10.922,156.999,12.607,156.999,14.763z M154.721,14.763c0-1.673-0.302-2.913-0.928-3.72
			c-0.611-0.815-1.501-1.219-2.64-1.219c-1.15,0-2.036,0.403-2.661,1.219c-0.626,0.808-0.938,2.047-0.938,3.72
			c0,1.612,0.313,2.843,0.938,3.68c0.625,0.836,1.511,1.25,2.661,1.25c1.139,0,2.017-0.403,2.64-1.229
			C154.409,17.646,154.721,16.417,154.721,14.763z M167.987,14.723c0-1.542-0.242-2.721-0.716-3.518
			c-0.476-0.797-1.24-1.189-2.301-1.189c-0.604,0-1.207,0.142-1.832,0.413c-0.605,0.282-1.17,0.635-1.663,1.049v7.397
			c0.555,0.272,1.048,0.465,1.472,0.576c0.433,0.11,0.907,0.17,1.421,0.17c1.13,0,2.016-0.393,2.662-1.179
			C167.663,17.657,167.987,16.417,167.987,14.723z M170.265,14.543c0,2.115-0.524,3.81-1.563,5.1
			c-1.039,1.291-2.339,1.925-3.912,1.925c-0.715,0-1.319-0.08-1.824-0.252c-0.503-0.184-0.997-0.414-1.49-0.705l-0.143,0.604h-2.065
			V3.233h2.208v6.432c0.555-0.494,1.158-0.908,1.804-1.23c0.645-0.322,1.382-0.482,2.208-0.482c1.48,0,2.64,0.584,3.497,1.752
			C169.84,10.863,170.265,12.476,170.265,14.543z M179.87,18.029v-3.577c-0.524,0.041-1.18,0.11-1.986,0.18
			c-0.806,0.092-1.451,0.203-1.944,0.344c-0.585,0.182-1.068,0.453-1.452,0.816c-0.382,0.361-0.573,0.877-0.573,1.531
			c0,0.746,0.211,1.301,0.634,1.684c0.423,0.373,1.04,0.563,1.855,0.563c0.695,0,1.32-0.151,1.885-0.444
			C178.853,18.827,179.386,18.463,179.87,18.029z M179.87,19.844c-0.172,0.121-0.414,0.302-0.717,0.544
			c-0.302,0.231-0.595,0.422-0.877,0.563c-0.394,0.191-0.768,0.354-1.128,0.453c-0.363,0.111-0.878,0.162-1.532,0.162
			c-0.545,0-1.059-0.092-1.542-0.291c-0.484-0.203-0.907-0.486-1.281-0.849c-0.353-0.353-0.625-0.795-0.836-1.311
			c-0.223-0.523-0.322-1.068-0.322-1.652c0-0.887,0.19-1.653,0.575-2.277c0.381-0.637,0.997-1.129,1.813-1.502
			c0.746-0.333,1.611-0.555,2.609-0.686c1.009-0.121,2.087-0.223,3.236-0.283v-0.412c0-0.516-0.082-0.918-0.233-1.24
			c-0.159-0.313-0.372-0.544-0.653-0.716c-0.282-0.181-0.625-0.292-1.028-0.353c-0.413-0.062-0.826-0.092-1.26-0.092
			c-0.504,0-1.107,0.081-1.794,0.232c-0.687,0.141-1.38,0.363-2.066,0.656h-0.131V8.573c0.414-0.111,0.988-0.232,1.753-0.373
			c0.757-0.141,1.503-0.211,2.248-0.211c0.897,0,1.663,0.07,2.278,0.211c0.614,0.141,1.179,0.383,1.673,0.746
			c0.474,0.354,0.827,0.816,1.059,1.381c0.241,0.555,0.354,1.239,0.354,2.057v8.83h-2.197L179.87,19.844L179.87,19.844z
			 M187.419,21.215h-2.207V3.233h2.207V21.215z"/>
		<path fill="#03559D" d="M41.48,35.053l-0.102,1.01c-0.263,0.129-0.514,0.221-0.767,0.279c-0.252,0.072-0.494,0.102-0.746,0.102
			c-0.694,0-1.25-0.199-1.673-0.604c-0.424-0.414-0.625-0.949-0.625-1.613c0-0.928,0.302-1.693,0.906-2.287
			c0.615-0.598,1.392-0.898,2.328-0.898c0.172,0,0.344,0.012,0.516,0.031c0.182,0.02,0.354,0.051,0.535,0.09l-0.092,0.836
			c-0.151-0.027-0.293-0.049-0.424-0.059c-0.131-0.021-0.252-0.021-0.353-0.021c-0.696,0-1.261,0.201-1.704,0.615
			c-0.453,0.414-0.676,0.928-0.676,1.563c0,0.463,0.121,0.824,0.373,1.09c0.242,0.262,0.574,0.393,0.998,0.393
			c0.252,0,0.504-0.041,0.746-0.131C40.967,35.357,41.219,35.225,41.48,35.053z M42.338,34.137c0-0.867,0.241-1.604,0.735-2.197
			c0.483-0.596,1.067-0.896,1.744-0.896c0.635,0,1.139,0.201,1.501,0.613c0.373,0.414,0.555,0.988,0.555,1.715
			c0,0.887-0.242,1.613-0.727,2.197c-0.483,0.586-1.098,0.877-1.834,0.877c-0.614,0-1.098-0.211-1.451-0.615
			C42.508,35.416,42.338,34.852,42.338,34.137z M44.857,31.867c-0.393,0-0.736,0.232-1.028,0.688
			c-0.292,0.463-0.435,1.018-0.435,1.662c0,0.434,0.082,0.787,0.263,1.039c0.172,0.252,0.403,0.383,0.706,0.383
			c0.423,0,0.775-0.223,1.048-0.666c0.283-0.441,0.424-1.008,0.424-1.715c0-0.441-0.091-0.783-0.262-1.025
			S45.169,31.867,44.857,31.867z M47.497,36.344l0.787-5.189h0.998l-0.131,0.836c0.323-0.322,0.635-0.564,0.938-0.727
			c0.301-0.16,0.604-0.23,0.906-0.23c0.393,0,0.686,0.121,0.907,0.373c0.211,0.242,0.323,0.594,0.323,1.049
			c0,0.119-0.012,0.24-0.021,0.373c-0.01,0.129-0.029,0.271-0.051,0.422l-0.463,3.096h-0.998l0.473-3.348
			c0.01-0.109,0.031-0.211,0.031-0.303c0.01-0.08,0.02-0.16,0.02-0.211c0-0.201-0.051-0.363-0.162-0.463
			c-0.1-0.104-0.242-0.152-0.442-0.152c-0.242,0-0.494,0.092-0.756,0.262c-0.263,0.172-0.524,0.443-0.808,0.785l-0.543,3.43h-1.009
			V36.344z M56.911,35.053l-0.091,1.01c-0.262,0.129-0.514,0.221-0.766,0.279c-0.252,0.072-0.494,0.102-0.746,0.102
			c-0.695,0-1.26-0.199-1.674-0.604c-0.422-0.414-0.636-0.949-0.636-1.613c0-0.928,0.313-1.693,0.918-2.287
			c0.614-0.598,1.392-0.898,2.328-0.898c0.171,0,0.333,0.012,0.515,0.031s0.354,0.051,0.534,0.09l-0.09,0.836
			c-0.151-0.027-0.292-0.049-0.423-0.059c-0.131-0.021-0.252-0.021-0.363-0.021c-0.685,0-1.25,0.201-1.703,0.615
			c-0.443,0.414-0.666,0.928-0.666,1.563c0,0.463,0.121,0.824,0.363,1.09c0.251,0.262,0.584,0.393,1.008,0.393
			c0.252,0,0.504-0.041,0.746-0.131S56.659,35.225,56.911,35.053z M61.951,34.822l-0.161,1.047
			c-0.302,0.201-0.594,0.344-0.887,0.445c-0.292,0.09-0.584,0.141-0.877,0.141c-0.646,0-1.179-0.232-1.603-0.686
			c-0.414-0.453-0.625-1.049-0.625-1.766c0-0.855,0.241-1.572,0.715-2.137c0.474-0.555,1.068-0.836,1.795-0.836
			c0.595,0,1.048,0.17,1.371,0.523c0.322,0.344,0.474,0.846,0.474,1.502v0.596h-3.276l-0.02,0.342v0.121
			c0,0.422,0.121,0.775,0.363,1.068c0.242,0.271,0.543,0.424,0.896,0.424c0.282,0,0.563-0.07,0.856-0.191
			S61.588,35.096,61.951,34.822z M59.038,32.926h2.187v-0.141c0-0.293-0.08-0.523-0.241-0.695s-0.384-0.252-0.655-0.252
			c-0.333,0-0.595,0.08-0.796,0.264C59.32,32.271,59.159,32.555,59.038,32.926z M63.604,38.943h-0.998l0.959-6.439
			c-0.213,0.15-0.403,0.344-0.545,0.574c-0.15,0.223-0.241,0.332-0.271,0.332c-0.02,0-0.04-0.01-0.061-0.029
			c-0.021-0.031-0.03-0.063-0.03-0.092c0-0.141,0.101-0.363,0.292-0.664c0.191-0.303,0.434-0.586,0.727-0.848l0.281-1.885h0.988
			l-0.192,1.291c0.151-0.053,0.304-0.092,0.444-0.121c0.141-0.031,0.281-0.041,0.423-0.041c0.646,0,1.159,0.23,1.542,0.686
			c0.383,0.465,0.585,1.088,0.585,1.863c0,0.475-0.131,0.938-0.383,1.383c-0.242,0.443-0.584,0.797-0.998,1.059
			c-0.242,0.143-0.535,0.24-0.888,0.313c-0.353,0.07-0.756,0.111-1.209,0.111h-0.291L63.604,38.943z M64.108,35.578
			c0.03,0.01,0.069,0.01,0.11,0.01s0.102,0,0.182,0c0.726,0,1.3-0.182,1.713-0.555c0.413-0.383,0.615-0.908,0.615-1.572
			c0-0.523-0.131-0.938-0.395-1.238c-0.262-0.305-0.615-0.455-1.078-0.455c-0.091,0-0.182,0.01-0.283,0.031
			c-0.11,0.029-0.211,0.068-0.332,0.119L64.108,35.578z M69.994,34.146c-0.02,0.162-0.05,0.303-0.061,0.424
			c-0.02,0.109-0.029,0.211-0.029,0.301c0,0.213,0.061,0.373,0.161,0.486c0.11,0.098,0.272,0.148,0.483,0.148
			c0.131,0,0.262-0.02,0.414-0.068c0.151-0.051,0.303-0.133,0.463-0.234v0.918c-0.222,0.111-0.433,0.193-0.625,0.252
			c-0.191,0.051-0.373,0.082-0.554,0.082c-0.413,0-0.746-0.131-1.008-0.385c-0.263-0.262-0.394-0.594-0.394-1.018
			c0-0.109,0.01-0.242,0.03-0.373c0.021-0.143,0.052-0.322,0.101-0.563l0.465-2.229h-0.877l0.16-0.734h0.888l0.251-1.09h1.02
			l-0.242,1.09h1.027l-0.171,0.734h-1.028L69.994,34.146z M76.697,34.146c-0.03,0.162-0.051,0.303-0.07,0.424
			c-0.011,0.109-0.02,0.211-0.02,0.301c0,0.213,0.06,0.373,0.162,0.486c0.109,0.098,0.271,0.148,0.482,0.148
			c0.131,0,0.262-0.02,0.413-0.068c0.142-0.051,0.304-0.133,0.464-0.234v0.918c-0.222,0.111-0.434,0.193-0.625,0.252
			c-0.191,0.051-0.383,0.082-0.555,0.082c-0.413,0-0.746-0.131-1.008-0.385c-0.262-0.262-0.393-0.594-0.393-1.018
			c0-0.109,0.01-0.242,0.03-0.373c0.021-0.143,0.05-0.322,0.101-0.563l0.463-2.229h-0.877l0.162-0.734h0.887l0.252-1.09h1.018
			l-0.242,1.09h1.028l-0.171,0.734h-1.027L76.697,34.146z M78.895,34.137c0-0.867,0.242-1.604,0.736-2.197
			c0.483-0.596,1.067-0.896,1.743-0.896c0.636,0,1.14,0.201,1.502,0.613c0.373,0.414,0.556,0.988,0.556,1.715
			c0,0.887-0.242,1.613-0.727,2.197c-0.484,0.586-1.1,0.877-1.835,0.877c-0.614,0-1.099-0.211-1.452-0.615
			C79.066,35.416,78.895,34.852,78.895,34.137z M81.414,31.867c-0.393,0-0.734,0.232-1.027,0.688
			c-0.293,0.463-0.435,1.018-0.435,1.662c0,0.434,0.081,0.787,0.263,1.039c0.17,0.252,0.402,0.383,0.705,0.383
			c0.424,0,0.776-0.223,1.049-0.666c0.281-0.441,0.422-1.008,0.422-1.715c0-0.441-0.09-0.783-0.262-1.025
			C81.959,31.99,81.717,31.867,81.414,31.867z M90.889,35.053l-0.101,1.01c-0.262,0.129-0.513,0.221-0.767,0.279
			c-0.241,0.072-0.493,0.102-0.745,0.102c-0.695,0-1.25-0.199-1.673-0.604c-0.424-0.414-0.625-0.949-0.625-1.613
			c0-0.928,0.302-1.693,0.906-2.287c0.615-0.598,1.392-0.898,2.34-0.898c0.16,0,0.332,0.012,0.504,0.031
			c0.181,0.02,0.363,0.051,0.533,0.09l-0.09,0.836c-0.152-0.027-0.293-0.049-0.424-0.059c-0.131-0.021-0.252-0.021-0.354-0.021
			c-0.694,0-1.26,0.201-1.703,0.615s-0.666,0.928-0.666,1.563c0,0.463,0.121,0.824,0.363,1.09c0.242,0.262,0.574,0.393,1.008,0.393
			c0.252,0,0.494-0.041,0.736-0.131C90.385,35.357,90.637,35.225,90.889,35.053z M91.745,34.137c0-0.867,0.242-1.604,0.735-2.197
			c0.484-0.596,1.068-0.896,1.744-0.896c0.635,0,1.14,0.201,1.512,0.613c0.363,0.414,0.555,0.988,0.555,1.715
			c0,0.887-0.253,1.613-0.736,2.197c-0.482,0.586-1.098,0.877-1.834,0.877c-0.615,0-1.099-0.211-1.451-0.615
			C91.928,35.416,91.745,34.852,91.745,34.137z M94.266,31.867c-0.395,0-0.735,0.232-1.028,0.688
			c-0.282,0.463-0.433,1.018-0.433,1.662c0,0.434,0.09,0.787,0.262,1.039c0.171,0.252,0.412,0.383,0.705,0.383
			c0.425,0,0.775-0.223,1.059-0.666c0.271-0.441,0.414-1.008,0.414-1.715c0-0.441-0.091-0.783-0.252-1.025
			C94.82,31.99,94.578,31.867,94.266,31.867z M96.906,36.344l0.787-5.189h0.998l-0.111,0.725c0.293-0.281,0.575-0.494,0.855-0.635
			c0.293-0.141,0.576-0.211,0.857-0.211c0.333,0,0.604,0.08,0.816,0.252c0.201,0.172,0.343,0.424,0.402,0.746
			c0.362-0.354,0.705-0.605,1.008-0.768c0.313-0.16,0.615-0.23,0.927-0.23c0.396,0,0.696,0.111,0.907,0.352
			c0.213,0.242,0.313,0.586,0.313,1.039c0,0.092-0.01,0.213-0.021,0.354c-0.021,0.141-0.041,0.303-0.061,0.463l-0.464,3.105h-0.998
			l0.493-3.357c0.011-0.1,0.031-0.191,0.042-0.281c0.009-0.08,0.009-0.16,0.009-0.242c0-0.201-0.051-0.352-0.15-0.453
			c-0.102-0.102-0.252-0.15-0.453-0.15c-0.23,0-0.483,0.09-0.746,0.262c-0.262,0.172-0.534,0.436-0.807,0.787l-0.515,3.438h-0.987
			l0.493-3.357c0.021-0.1,0.031-0.191,0.042-0.281c0.01-0.08,0.01-0.16,0.01-0.242c0-0.201-0.052-0.352-0.151-0.453
			c-0.101-0.102-0.253-0.15-0.443-0.15c-0.241,0-0.493,0.09-0.756,0.262s-0.535,0.436-0.808,0.787l-0.481,3.438h-1.009V36.344z
			 M106.129,38.943h-0.998l0.947-6.439c-0.212,0.15-0.395,0.344-0.544,0.574c-0.151,0.223-0.242,0.332-0.272,0.332
			c-0.021,0-0.039-0.01-0.051-0.029c-0.021-0.031-0.029-0.063-0.029-0.092c0-0.141,0.102-0.363,0.293-0.664
			c0.191-0.303,0.434-0.586,0.725-0.848l0.271-1.885h0.989l-0.183,1.291c0.15-0.053,0.292-0.092,0.443-0.121
			c0.143-0.031,0.283-0.041,0.422-0.041c0.638,0,1.149,0.23,1.543,0.686c0.384,0.465,0.576,1.088,0.576,1.863
			c0,0.475-0.121,0.938-0.375,1.383c-0.252,0.443-0.584,0.797-1.008,1.059c-0.23,0.143-0.533,0.24-0.875,0.313
			c-0.354,0.07-0.758,0.111-1.211,0.111h-0.303L106.129,38.943z M106.623,35.578c0.039,0.01,0.08,0.01,0.12,0.01s0.101,0,0.183,0
			c0.726,0,1.299-0.182,1.713-0.555c0.412-0.383,0.615-0.908,0.615-1.572c0-0.523-0.131-0.938-0.394-1.238
			c-0.263-0.305-0.626-0.455-1.078-0.455c-0.092,0-0.183,0.01-0.293,0.031c-0.101,0.029-0.212,0.068-0.322,0.119L106.623,35.578z
			 M112.125,28.492h1.029l-1.189,7.852h-1.02L112.125,28.492z M117.6,34.822l-0.162,1.047c-0.303,0.201-0.594,0.344-0.887,0.445
			c-0.281,0.09-0.574,0.141-0.867,0.141c-0.654,0-1.188-0.232-1.603-0.686c-0.423-0.453-0.625-1.049-0.625-1.766
			c0-0.855,0.231-1.572,0.705-2.137c0.476-0.555,1.067-0.836,1.795-0.836c0.595,0,1.06,0.17,1.371,0.523
			c0.323,0.344,0.483,0.846,0.483,1.502v0.596h-3.275l-0.031,0.342v0.121c0,0.422,0.121,0.775,0.373,1.068
			c0.242,0.271,0.545,0.424,0.897,0.424c0.282,0,0.565-0.07,0.856-0.191C116.913,35.295,117.247,35.096,117.6,34.822z
			 M114.697,32.926h2.177v-0.141c0-0.293-0.081-0.523-0.241-0.695c-0.162-0.172-0.373-0.252-0.654-0.252
			c-0.323,0-0.596,0.08-0.797,0.264C114.969,32.271,114.807,32.555,114.697,32.926z M120.19,34.146
			c-0.03,0.162-0.05,0.303-0.071,0.424c-0.01,0.109-0.02,0.211-0.02,0.301c0,0.213,0.052,0.373,0.16,0.486
			c0.111,0.098,0.272,0.148,0.483,0.148c0.121,0,0.263-0.02,0.414-0.068c0.142-0.051,0.292-0.133,0.453-0.234v0.918
			c-0.222,0.111-0.423,0.193-0.615,0.252c-0.2,0.051-0.383,0.082-0.554,0.082c-0.414,0-0.758-0.131-1.008-0.385
			c-0.262-0.262-0.396-0.594-0.396-1.018c0-0.109,0.011-0.242,0.031-0.373c0.011-0.143,0.051-0.322,0.103-0.563l0.451-2.229h-0.876
			l0.171-0.734h0.887l0.252-1.09h1.019l-0.241,1.09h1.02l-0.162,0.734h-1.027L120.19,34.146z M123.356,29.539
			c0-0.148,0.05-0.281,0.149-0.383c0.11-0.109,0.241-0.16,0.394-0.16c0.151,0,0.282,0.051,0.383,0.16
			c0.11,0.102,0.161,0.232,0.161,0.383c0,0.152-0.051,0.283-0.161,0.385c-0.101,0.109-0.231,0.16-0.383,0.16
			c-0.152,0-0.282-0.051-0.394-0.15C123.406,29.834,123.356,29.701,123.356,29.539z M123.415,36.344h-0.998l0.757-5.189h1.008
			L123.415,36.344z M124.907,34.137c0-0.867,0.241-1.604,0.726-2.197c0.494-0.596,1.08-0.896,1.756-0.896
			c0.634,0,1.139,0.201,1.5,0.613c0.373,0.414,0.555,0.988,0.555,1.715c0,0.887-0.241,1.613-0.725,2.197
			c-0.494,0.586-1.101,0.877-1.836,0.877c-0.615,0-1.099-0.211-1.451-0.615C125.078,35.416,124.907,34.852,124.907,34.137z
			 M127.416,31.867c-0.393,0-0.727,0.232-1.018,0.688c-0.295,0.463-0.434,1.018-0.434,1.662c0,0.434,0.079,0.787,0.252,1.039
			c0.182,0.252,0.414,0.383,0.705,0.383c0.434,0,0.786-0.223,1.06-0.666c0.28-0.441,0.413-1.008,0.413-1.715
			c0-0.441-0.082-0.783-0.254-1.025C127.971,31.99,127.73,31.867,127.416,31.867z M130.067,36.344l0.786-5.189h0.998l-0.131,0.836
			c0.321-0.322,0.635-0.564,0.938-0.727c0.302-0.16,0.605-0.23,0.908-0.23c0.382,0,0.685,0.121,0.906,0.373
			c0.211,0.242,0.321,0.594,0.321,1.049c0,0.119-0.01,0.24-0.02,0.373c-0.011,0.129-0.03,0.271-0.052,0.422l-0.465,3.096h-0.996
			l0.475-3.348c0.011-0.109,0.02-0.211,0.029-0.303c0.011-0.08,0.011-0.16,0.011-0.211c0-0.201-0.05-0.363-0.151-0.463
			c-0.102-0.104-0.252-0.152-0.443-0.152c-0.242,0-0.494,0.092-0.754,0.262c-0.265,0.172-0.535,0.443-0.809,0.785l-0.555,3.43
			h-0.997V36.344z M142.535,36.344h-0.978l0.092-0.654c-0.202,0.262-0.414,0.453-0.636,0.574c-0.223,0.119-0.476,0.182-0.736,0.182
			c-0.495,0-0.918-0.201-1.25-0.596s-0.504-0.887-0.504-1.48c0-0.354,0.061-0.695,0.172-1.039c0.11-0.332,0.281-0.645,0.494-0.928
			c0.332-0.441,0.726-0.754,1.169-0.957c0.441-0.191,1.026-0.291,1.732-0.291h1.199L142.535,36.344z M141.8,34.74l0.394-2.73
			c-0.031-0.012-0.069-0.012-0.102-0.012c-0.04,0-0.091,0-0.16,0c-0.695,0-1.252,0.203-1.685,0.627
			c-0.434,0.422-0.654,0.967-0.654,1.633c0,0.402,0.092,0.734,0.281,0.986c0.184,0.242,0.424,0.373,0.716,0.373
			c0.232,0,0.443-0.08,0.646-0.221C141.438,35.256,141.627,35.033,141.8,34.74z M143.766,36.344l0.785-5.189h0.998l-0.131,0.836
			c0.322-0.322,0.635-0.564,0.938-0.727c0.303-0.162,0.604-0.23,0.905-0.23c0.386,0,0.688,0.121,0.907,0.373
			c0.213,0.242,0.323,0.594,0.323,1.049c0,0.119-0.009,0.24-0.02,0.373c-0.012,0.129-0.031,0.271-0.052,0.422l-0.463,3.096h-0.999
			l0.474-3.348c0.011-0.109,0.021-0.211,0.031-0.303c0.011-0.08,0.011-0.16,0.011-0.211c0-0.201-0.051-0.363-0.151-0.463
			c-0.102-0.104-0.252-0.152-0.443-0.152c-0.241,0-0.495,0.092-0.757,0.262c-0.262,0.172-0.534,0.443-0.807,0.785l-0.543,3.43
			h-1.008V36.344z M153.34,36.354c-0.32,0.029-0.595,0.051-0.796,0.07c-0.211,0.01-0.382,0.02-0.522,0.02
			c-0.849,0-1.514-0.199-1.996-0.604c-0.475-0.414-0.715-0.959-0.715-1.664c0-0.492,0.108-0.967,0.341-1.4
			c0.231-0.436,0.564-0.816,0.998-1.129c0.293-0.211,0.626-0.373,0.987-0.475c0.373-0.1,0.798-0.15,1.28-0.15h0.231l0.362-2.529
			h0.998L153.34,36.354z M152.453,35.557l0.535-3.668c-0.031,0-0.071,0-0.123,0c-0.059-0.012-0.099-0.012-0.12-0.012
			c-0.715,0-1.299,0.203-1.743,0.605c-0.443,0.404-0.666,0.928-0.666,1.553c0,0.473,0.152,0.855,0.435,1.148
			c0.292,0.281,0.677,0.434,1.14,0.434c0.111,0,0.212-0.01,0.302-0.02C152.292,35.588,152.373,35.578,152.453,35.557z
			 M159.126,31.729c0.224-0.232,0.442-0.414,0.675-0.525c0.231-0.121,0.483-0.172,0.757-0.172c0.515,0,0.938,0.191,1.271,0.586
			c0.334,0.402,0.494,0.906,0.494,1.531c0,0.535-0.131,1.037-0.395,1.512c-0.261,0.475-0.625,0.857-1.088,1.139
			c-0.313,0.191-0.676,0.332-1.099,0.424c-0.414,0.082-0.957,0.131-1.633,0.131c-0.071,0-0.172-0.01-0.313-0.01
			c-0.143,0-0.252,0-0.332,0l1.18-7.852h0.968L159.126,31.729z M158.995,32.744l-0.424,2.732c0.031,0,0.071,0.01,0.111,0.01
			c0.051,0,0.119,0,0.2,0c0.717,0,1.303-0.221,1.765-0.664c0.463-0.455,0.686-1.02,0.686-1.693c0-0.385-0.091-0.686-0.282-0.918
			c-0.19-0.23-0.442-0.344-0.744-0.344c-0.273,0-0.516,0.072-0.737,0.223C159.338,32.24,159.146,32.463,158.995,32.744z
			 M167.15,34.822l-0.162,1.047c-0.291,0.201-0.595,0.344-0.877,0.445c-0.292,0.09-0.583,0.141-0.877,0.141
			c-0.655,0-1.188-0.232-1.603-0.686c-0.413-0.453-0.626-1.049-0.626-1.766c0-0.855,0.233-1.572,0.706-2.137
			c0.475-0.555,1.078-0.836,1.794-0.836c0.604,0,1.06,0.17,1.38,0.523c0.313,0.344,0.476,0.846,0.476,1.502v0.596h-3.276
			l-0.02,0.342v0.121c0,0.422,0.121,0.775,0.362,1.068c0.241,0.271,0.543,0.424,0.896,0.424c0.283,0,0.565-0.07,0.857-0.191
			C166.475,35.295,166.796,35.096,167.15,34.822z M164.246,32.926h2.188v-0.141c0-0.293-0.08-0.523-0.241-0.695
			c-0.162-0.172-0.385-0.252-0.655-0.252c-0.333,0-0.596,0.08-0.808,0.264C164.53,32.271,164.367,32.555,164.246,32.926z
			 M168.772,38.943h-1.027l1.4-2.924l-0.928-4.865h0.979l0.654,3.404l1.634-3.404h1.067L168.772,38.943z M172.632,34.137
			c0-0.867,0.242-1.604,0.728-2.197c0.494-0.596,1.078-0.896,1.753-0.896c0.636,0,1.14,0.201,1.502,0.613
			c0.373,0.414,0.554,0.988,0.554,1.715c0,0.887-0.241,1.613-0.725,2.197c-0.494,0.586-1.1,0.877-1.835,0.877
			c-0.614,0-1.099-0.211-1.451-0.615C172.805,35.416,172.632,34.852,172.632,34.137z M175.143,31.867
			c-0.393,0-0.727,0.232-1.019,0.688c-0.293,0.463-0.433,1.018-0.433,1.662c0,0.434,0.08,0.787,0.252,1.039
			c0.181,0.252,0.412,0.383,0.705,0.383c0.434,0,0.786-0.223,1.059-0.666c0.281-0.441,0.412-1.008,0.412-1.715
			c0-0.441-0.08-0.783-0.252-1.025C175.697,31.99,175.454,31.867,175.143,31.867z M177.793,36.344l0.786-5.189h0.998l-0.13,0.836
			c0.321-0.322,0.634-0.564,0.936-0.727c0.304-0.16,0.605-0.23,0.908-0.23c0.382,0,0.685,0.121,0.906,0.373
			c0.213,0.242,0.322,0.594,0.322,1.049c0,0.119-0.011,0.24-0.02,0.373c-0.011,0.129-0.032,0.271-0.052,0.422l-0.464,3.096h-0.997
			l0.473-3.348c0.011-0.109,0.021-0.211,0.031-0.303c0.01-0.08,0.01-0.16,0.01-0.211c0-0.201-0.052-0.363-0.149-0.463
			c-0.103-0.104-0.252-0.152-0.444-0.152c-0.242,0-0.494,0.092-0.756,0.262c-0.264,0.172-0.534,0.443-0.807,0.785l-0.555,3.43
			h-0.997V36.344z M187.369,36.354c-0.324,0.029-0.596,0.051-0.797,0.07c-0.211,0.01-0.383,0.02-0.523,0.02
			c-0.848,0-1.513-0.199-1.997-0.604c-0.473-0.414-0.714-0.959-0.714-1.664c0-0.492,0.109-0.967,0.342-1.4
			c0.232-0.436,0.564-0.816,0.997-1.129c0.294-0.211,0.626-0.373,0.987-0.475c0.374-0.1,0.798-0.15,1.282-0.15h0.229l0.362-2.529
			h0.998L187.369,36.354z M186.482,35.557l0.534-3.668c-0.031,0-0.069,0-0.121,0c-0.062-0.012-0.101-0.012-0.121-0.012
			c-0.716,0-1.3,0.203-1.743,0.605c-0.444,0.404-0.666,0.928-0.666,1.553c0,0.473,0.151,0.855,0.435,1.148
			c0.292,0.281,0.676,0.434,1.139,0.434c0.111,0,0.211-0.01,0.304-0.02C186.32,35.588,186.401,35.578,186.482,35.557z"/>
	</g>
</g>
</svg>
