<?xml version="1.0" encoding="utf-8"?>
<!-- Generator: Adobe Illustrator 24.1.1, SVG Export Plug-In . SVG Version: 6.00 Build 0)  -->
<svg version="1.1" id="Layer_1" xmlns="http://www.w3.org/2000/svg" xmlns:xlink="http://www.w3.org/1999/xlink" x="0px" y="0px"
	 viewBox="0 0 250 60" style="enable-background:new 0 0 250 60;" xml:space="preserve">
<style type="text/css">
	.st0{fill:#21448F;}
	.st1{fill:url(#SVGID_1_);}
	.st2{fill:url(#SVGID_2_);}
</style>
<g>
	<g>
		<path class="st0" d="M51,30.6c0.6,0.3,1.3,0.6,2.2,0.9c0.9,0.2,1.8,0.4,2.7,0.4c1.1,0,1.9-0.2,2.5-0.7c0.6-0.4,0.8-1,0.8-1.7
			c0-0.7-0.3-1.3-0.8-1.8c-0.5-0.5-1.4-0.9-2.6-1.4c-1.7-0.7-3.1-1.6-4-2.7c-1-1.1-1.4-2.3-1.4-3.7c0-0.9,0.2-1.8,0.5-2.6
			c0.4-0.8,0.9-1.5,1.5-2.1c0.7-0.6,1.5-1,2.5-1.4c1-0.3,2.1-0.5,3.3-0.5c1.1,0,2.1,0.1,2.9,0.3c0.8,0.2,1.5,0.4,2.1,0.7l-1,3.9
			c-0.4-0.2-0.9-0.4-1.6-0.6c-0.7-0.2-1.5-0.3-2.4-0.3c-1,0-1.8,0.2-2.3,0.7c-0.5,0.4-0.7,0.9-0.7,1.5c0,0.3,0.1,0.7,0.2,0.9
			c0.1,0.3,0.4,0.5,0.6,0.7c0.3,0.2,0.7,0.5,1.2,0.7c0.5,0.2,1.1,0.5,1.7,0.8c1.8,0.8,3.1,1.7,3.9,2.7c0.8,1.1,1.2,2.3,1.2,3.7
			c0,1-0.2,1.8-0.5,2.6c-0.3,0.8-0.9,1.5-1.6,2.1c-0.7,0.6-1.6,1.1-2.6,1.4c-1,0.3-2.2,0.5-3.6,0.5c-1.1,0-2.2-0.1-3.2-0.4
			c-1-0.2-1.8-0.5-2.3-0.8L51,30.6z"/>
		<path class="st0" d="M66.7,24.6c0-1,0-1.9,0-2.7c0-0.8-0.1-1.6-0.1-2.3h4l0.2,2h0.1c0.2-0.3,0.4-0.5,0.7-0.8
			c0.3-0.3,0.6-0.5,1-0.8c0.4-0.2,0.8-0.4,1.3-0.6c0.5-0.2,1-0.2,1.6-0.2c1,0,1.8,0.2,2.6,0.7c0.7,0.5,1.2,1.1,1.5,1.9h0.1
			c0.3-0.4,0.6-0.7,0.9-1.1c0.3-0.3,0.7-0.6,1-0.8c0.4-0.2,0.8-0.4,1.3-0.5c0.5-0.1,1-0.2,1.5-0.2c1.5,0,2.7,0.5,3.6,1.6
			c0.9,1.1,1.4,2.8,1.4,5v9.6h-4.6v-8.9c0-1.1-0.2-1.9-0.5-2.6c-0.3-0.6-0.9-0.9-1.6-0.9c-0.5,0-1,0.2-1.3,0.5
			c-0.3,0.3-0.6,0.7-0.8,1.2c-0.1,0.4-0.2,0.8-0.2,1.2v9.5h-4.6v-9.2c0-0.9-0.2-1.6-0.5-2.2c-0.3-0.6-0.8-0.9-1.6-0.9
			c-0.5,0-1,0.2-1.3,0.5c-0.3,0.3-0.6,0.7-0.8,1.2c-0.1,0.2-0.1,0.4-0.1,0.6c0,0.2,0,0.4,0,0.7v9.5h-4.6V24.6z"/>
		<path class="st0" d="M100.5,27.9c-0.6,0-1.1,0-1.6,0.1c-0.5,0.1-1,0.2-1.3,0.4c-0.4,0.2-0.7,0.5-0.9,0.8c-0.2,0.3-0.3,0.7-0.3,1.2
			c0,0.7,0.2,1.2,0.5,1.5c0.4,0.3,0.8,0.5,1.3,0.5c0.5,0,1-0.2,1.4-0.5c0.4-0.3,0.7-0.7,0.9-1.2c0-0.1,0.1-0.2,0.1-0.4
			c0-0.1,0-0.3,0-0.4V27.9L100.5,27.9z M105.1,31.7c0,0.7,0,1.4,0,2.1c0,0.7,0.1,1.2,0.2,1.7h-4.3l-0.3-1.6h-0.1
			c-0.5,0.6-1.1,1.1-1.8,1.4c-0.7,0.3-1.5,0.5-2.4,0.5c-0.8,0-1.4-0.1-2-0.4c-0.6-0.3-1.1-0.6-1.5-1.1c-0.4-0.4-0.7-1-1-1.5
			c-0.2-0.6-0.3-1.2-0.3-1.9c0-1,0.2-1.9,0.6-2.7c0.4-0.8,1-1.4,1.8-1.9c0.8-0.5,1.7-0.9,2.8-1.1c1.1-0.2,2.2-0.4,3.5-0.4v-0.3
			c0-0.2,0-0.5-0.1-0.7c-0.1-0.2-0.2-0.5-0.4-0.7c-0.2-0.2-0.5-0.4-0.8-0.5c-0.3-0.1-0.8-0.2-1.3-0.2c-0.8,0-1.5,0.1-2.2,0.3
			c-0.7,0.2-1.3,0.5-1.9,0.8l-0.8-3.1c0.5-0.3,1.3-0.6,2.3-0.9c1-0.3,2.2-0.5,3.5-0.5c1.3,0,2.4,0.2,3.2,0.6c0.8,0.4,1.5,0.9,2,1.5
			c0.5,0.6,0.8,1.3,1,2.2c0.2,0.8,0.3,1.7,0.3,2.6V31.7z"/>
		<path class="st0" d="M108.5,24.7c0-1.1,0-2,0-2.8c0-0.8-0.1-1.6-0.1-2.3h4.1l0.2,2.8h0.1c0.4-1.1,1-1.9,1.7-2.4
			c0.8-0.5,1.5-0.7,2.2-0.7c0.2,0,0.4,0,0.5,0c0.1,0,0.3,0,0.5,0.1v4.5c-0.2,0-0.4-0.1-0.6-0.1c-0.2,0-0.4,0-0.7,0
			c-0.8,0-1.4,0.2-2,0.6c-0.6,0.4-0.9,1-1.1,1.8c-0.1,0.3-0.1,0.7-0.1,1.2v8.1h-4.7V24.7z"/>
		<path class="st0" d="M125.8,15.3v4.3h3.4V23h-3.4v6.2c0,1,0.1,1.7,0.4,2.1c0.3,0.4,0.8,0.6,1.4,0.6c0.3,0,0.5,0,0.7,0
			c0.2,0,0.4-0.1,0.6-0.1l0,3.6c-0.3,0.1-0.7,0.2-1.3,0.3c-0.5,0.1-1.1,0.1-1.8,0.1c-0.8,0-1.4-0.1-2-0.3c-0.6-0.2-1.1-0.5-1.5-0.9
			c-0.5-0.5-0.8-1.1-1-1.8c-0.2-0.7-0.3-1.7-0.3-2.9V23h-2v-3.4h2v-2.9L125.8,15.3z"/>
		<path class="st0" d="M140.5,25.8c0-0.3,0-0.7-0.1-1.1c-0.1-0.4-0.2-0.7-0.4-1.1c-0.2-0.3-0.4-0.6-0.8-0.8
			c-0.3-0.2-0.7-0.3-1.2-0.3c-0.5,0-0.8,0.1-1.2,0.3c-0.3,0.2-0.6,0.5-0.8,0.8c-0.2,0.3-0.4,0.7-0.5,1.1c-0.1,0.4-0.2,0.8-0.2,1.1
			H140.5L140.5,25.8z M135.3,29.1c0,0.5,0.1,1,0.4,1.4c0.2,0.4,0.5,0.7,0.9,1c0.4,0.3,0.8,0.4,1.3,0.6c0.5,0.1,1,0.2,1.5,0.2
			c0.8,0,1.5-0.1,2.1-0.2c0.7-0.1,1.3-0.3,1.9-0.5l0.6,3.2c-0.8,0.3-1.6,0.5-2.5,0.7c-0.9,0.2-1.9,0.2-2.9,0.2
			c-2.5,0-4.5-0.7-5.9-2.1c-1.4-1.4-2.1-3.4-2.1-5.9c0-1.1,0.2-2.2,0.5-3.2c0.3-1,0.8-1.9,1.4-2.7c0.6-0.8,1.4-1.4,2.3-1.9
			c0.9-0.5,2-0.7,3.3-0.7c1.2,0,2.2,0.2,3,0.6c0.8,0.4,1.5,1,2,1.7c0.5,0.7,0.9,1.5,1.2,2.5c0.2,0.9,0.4,1.9,0.4,3
			c0,0.5,0,0.9,0,1.2c0,0.3-0.1,0.6-0.1,0.8H135.3z"/>
		<path class="st0" d="M147.4,24.6c0-1,0-1.9,0-2.7c0-0.8-0.1-1.6-0.1-2.3h4.1l0.2,2.1h0.1c0.2-0.3,0.4-0.5,0.7-0.8
			c0.3-0.3,0.6-0.6,1-0.8c0.4-0.2,0.8-0.4,1.3-0.6c0.5-0.2,1-0.2,1.6-0.2c1.6,0,2.9,0.6,3.8,1.7c1,1.1,1.4,2.7,1.4,4.9v9.7h-4.7
			v-9.2c0-0.9-0.2-1.7-0.5-2.3c-0.3-0.6-0.9-0.9-1.7-0.9c-0.6,0-1.1,0.2-1.4,0.5c-0.4,0.3-0.6,0.7-0.8,1.2c-0.1,0.3-0.2,0.8-0.2,1.3
			v9.3h-4.7V24.6z"/>
	</g>
	<path class="st0" d="M71.7,47.3l-0.6-2.5c-0.1-0.3-0.2-0.7-0.3-1.2c-0.1-0.4-0.2-0.8-0.3-1.2h0c-0.1,0.4-0.2,0.8-0.2,1.2
		c-0.1,0.4-0.2,0.8-0.3,1.2l-0.6,2.5H71.7L71.7,47.3z M69.1,49.2l-0.7,2.9h-2.6L69,40.4h3.3l3.2,11.7h-2.7l-0.8-2.9H69.1L69.1,49.2z
		 M81.8,47.1c0-0.1,0-0.2,0-0.2c0-0.1,0-0.2,0-0.2c-0.1-0.3-0.2-0.6-0.4-0.8c-0.2-0.2-0.5-0.4-0.9-0.4c-0.3,0-0.5,0.1-0.7,0.2
		c-0.2,0.1-0.4,0.3-0.5,0.5c-0.1,0.2-0.2,0.5-0.3,0.8c-0.1,0.3-0.1,0.6-0.1,1c0,0.7,0.1,1.3,0.4,1.7c0.3,0.4,0.7,0.6,1.2,0.6
		c0.3,0,0.6-0.1,0.8-0.3c0.2-0.2,0.4-0.5,0.5-0.8c0-0.2,0.1-0.3,0.1-0.6V47.1L81.8,47.1z M84.4,39.8v9.7c0,0.5,0,0.9,0,1.4
		c0,0.5,0,0.8,0.1,1.2h-2.2L82.1,51h0c-0.2,0.4-0.6,0.8-1,1c-0.4,0.2-0.9,0.3-1.4,0.3c-0.5,0-0.9-0.1-1.3-0.3
		c-0.4-0.2-0.8-0.5-1.1-0.9c-0.3-0.4-0.5-0.9-0.7-1.4c-0.2-0.5-0.2-1.1-0.2-1.8c0-0.7,0.1-1.4,0.3-1.9c0.2-0.6,0.4-1,0.8-1.4
		c0.3-0.4,0.7-0.7,1.1-0.9c0.4-0.2,0.9-0.3,1.3-0.3c0.5,0,0.9,0.1,1.2,0.3c0.3,0.2,0.6,0.4,0.8,0.7h0v-4.5H84.4L84.4,39.8z
		 M88.1,43.6l1,3.9c0.2,0.7,0.3,1.4,0.4,2.2h0.1c0.1-0.4,0.1-0.7,0.2-1.1c0.1-0.3,0.2-0.7,0.2-1.1l1-3.9h2.6l-2.9,8.5h-2.5l-2.9-8.5
		H88.1L88.1,43.6z M98.7,48.1c-0.3,0-0.6,0-0.9,0.1c-0.3,0-0.5,0.1-0.7,0.2c-0.2,0.1-0.4,0.2-0.5,0.4c-0.1,0.2-0.2,0.4-0.2,0.7
		c0,0.4,0.1,0.6,0.3,0.8c0.2,0.2,0.4,0.3,0.7,0.3c0.3,0,0.5-0.1,0.8-0.3c0.2-0.2,0.4-0.4,0.5-0.7c0-0.1,0-0.1,0-0.2
		c0-0.1,0-0.1,0-0.2V48.1L98.7,48.1z M101.2,50.1c0,0.4,0,0.8,0,1.1c0,0.4,0.1,0.7,0.1,0.9H99l-0.2-0.9h0c-0.3,0.3-0.6,0.6-1,0.8
		c-0.4,0.2-0.8,0.3-1.3,0.3c-0.4,0-0.8-0.1-1.1-0.2c-0.3-0.1-0.6-0.3-0.8-0.6c-0.2-0.2-0.4-0.5-0.5-0.8c-0.1-0.3-0.2-0.6-0.2-1
		c0-0.6,0.1-1,0.3-1.4c0.2-0.4,0.6-0.7,1-1c0.4-0.3,0.9-0.5,1.5-0.6c0.6-0.1,1.2-0.2,1.9-0.2v-0.1c0-0.1,0-0.3-0.1-0.4
		c0-0.1-0.1-0.3-0.2-0.4c-0.1-0.1-0.3-0.2-0.4-0.3c-0.2-0.1-0.4-0.1-0.7-0.1c-0.4,0-0.8,0.1-1.2,0.2c-0.4,0.1-0.7,0.3-1,0.4
		l-0.5-1.6c0.3-0.2,0.7-0.3,1.2-0.5c0.5-0.2,1.2-0.2,1.9-0.2c0.7,0,1.3,0.1,1.7,0.3c0.5,0.2,0.8,0.5,1.1,0.8
		c0.3,0.3,0.5,0.7,0.6,1.2c0.1,0.4,0.2,0.9,0.2,1.4V50.1L101.2,50.1z M103,46.3c0-0.5,0-1,0-1.4c0-0.4,0-0.9-0.1-1.2h2.2l0.1,1.1
		h0.1c0.1-0.1,0.2-0.3,0.4-0.4c0.2-0.2,0.3-0.3,0.5-0.4c0.2-0.1,0.4-0.2,0.7-0.3c0.3-0.1,0.6-0.1,0.9-0.1c0.9,0,1.5,0.3,2.1,0.9
		c0.5,0.6,0.8,1.5,0.8,2.6v5.2H108v-4.9c0-0.5-0.1-0.9-0.3-1.2c-0.2-0.3-0.5-0.5-0.9-0.5c-0.3,0-0.6,0.1-0.8,0.3
		c-0.2,0.2-0.3,0.4-0.4,0.6c-0.1,0.2-0.1,0.4-0.1,0.7v5H103V46.3L103,46.3z M118.3,51.9c-0.2,0.1-0.5,0.2-0.9,0.2
		c-0.4,0.1-0.8,0.1-1.2,0.1c-0.7,0-1.2-0.1-1.8-0.3c-0.5-0.2-1-0.5-1.3-0.9c-0.4-0.4-0.7-0.8-0.9-1.4c-0.2-0.5-0.3-1.1-0.3-1.8
		c0-0.6,0.1-1.2,0.3-1.8c0.2-0.5,0.5-1,0.9-1.4c0.4-0.4,0.9-0.7,1.4-1c0.6-0.2,1.2-0.3,2-0.3c0.3,0,0.7,0,1,0.1
		c0.3,0.1,0.6,0.1,0.8,0.2l-0.4,1.9c-0.1-0.1-0.3-0.1-0.5-0.2c-0.2,0-0.5-0.1-0.8-0.1c-0.7,0-1.2,0.2-1.6,0.7
		c-0.4,0.5-0.6,1-0.6,1.7c0,0.8,0.2,1.4,0.6,1.8c0.4,0.4,0.9,0.6,1.5,0.6c0.5,0,1-0.1,1.3-0.2L118.3,51.9L118.3,51.9z M124.2,47
		c0-0.2,0-0.4-0.1-0.6c0-0.2-0.1-0.4-0.2-0.6c-0.1-0.2-0.2-0.3-0.4-0.4c-0.2-0.1-0.4-0.2-0.6-0.2c-0.2,0-0.5,0.1-0.6,0.2
		c-0.2,0.1-0.3,0.3-0.4,0.4c-0.1,0.2-0.2,0.4-0.3,0.6c-0.1,0.2-0.1,0.4-0.1,0.6H124.2L124.2,47z M121.4,48.7c0,0.3,0.1,0.5,0.2,0.7
		c0.1,0.2,0.3,0.4,0.5,0.5c0.2,0.1,0.4,0.2,0.7,0.3c0.3,0.1,0.5,0.1,0.8,0.1c0.4,0,0.8,0,1.1-0.1c0.3-0.1,0.7-0.1,1-0.2l0.3,1.7
		c-0.4,0.2-0.9,0.3-1.3,0.4c-0.5,0.1-1,0.1-1.5,0.1c-1.4,0-2.4-0.4-3.1-1.1c-0.7-0.8-1.1-1.8-1.1-3.1c0-0.6,0.1-1.2,0.3-1.7
		c0.2-0.6,0.4-1,0.8-1.5c0.3-0.4,0.8-0.8,1.3-1c0.5-0.3,1.1-0.4,1.7-0.4c0.6,0,1.2,0.1,1.6,0.3c0.4,0.2,0.8,0.5,1.1,0.9
		c0.3,0.4,0.5,0.8,0.6,1.3c0.1,0.5,0.2,1,0.2,1.6c0,0.3,0,0.5,0,0.7c0,0.2,0,0.3-0.1,0.4H121.4L121.4,48.7z M133,47.1
		c0-0.1,0-0.2,0-0.2c0-0.1,0-0.2,0-0.2c-0.1-0.3-0.2-0.6-0.4-0.8c-0.2-0.2-0.5-0.4-0.9-0.4c-0.3,0-0.5,0.1-0.7,0.2
		c-0.2,0.1-0.4,0.3-0.5,0.5c-0.1,0.2-0.2,0.5-0.3,0.8c-0.1,0.3-0.1,0.6-0.1,1c0,0.7,0.1,1.3,0.4,1.7c0.3,0.4,0.7,0.6,1.2,0.6
		c0.3,0,0.6-0.1,0.8-0.3c0.2-0.2,0.4-0.5,0.5-0.8c0-0.2,0.1-0.3,0.1-0.6V47.1L133,47.1z M135.5,39.8v9.7c0,0.5,0,0.9,0,1.4
		c0,0.5,0,0.8,0.1,1.2h-2.2l-0.1-1.2h0c-0.2,0.4-0.6,0.8-1,1c-0.4,0.2-0.9,0.3-1.4,0.3c-0.5,0-0.9-0.1-1.3-0.3
		c-0.4-0.2-0.8-0.5-1.1-0.9c-0.3-0.4-0.5-0.9-0.7-1.4c-0.2-0.5-0.2-1.1-0.2-1.8c0-0.7,0.1-1.4,0.3-1.9c0.2-0.6,0.4-1,0.8-1.4
		c0.3-0.4,0.7-0.7,1.1-0.9c0.4-0.2,0.9-0.3,1.3-0.3c0.5,0,0.9,0.1,1.2,0.3c0.3,0.2,0.6,0.4,0.8,0.7h0v-4.5H135.5L135.5,39.8z
		 M143.5,50.2c0.1,0,0.2,0,0.4,0c0.1,0,0.3,0,0.4,0c0.5,0,1-0.1,1.4-0.2c0.4-0.2,0.8-0.4,1.1-0.7c0.3-0.3,0.5-0.8,0.7-1.3
		c0.2-0.5,0.3-1.2,0.3-1.9c0-1.2-0.3-2.2-0.8-2.8c-0.6-0.6-1.3-1-2.4-1c-0.2,0-0.4,0-0.6,0c-0.2,0-0.3,0-0.4,0.1V50.2L143.5,50.2z
		 M140.9,40.5c0.4-0.1,0.9-0.1,1.5-0.2c0.6,0,1.1-0.1,1.7-0.1c1,0,1.9,0.1,2.5,0.3c0.7,0.2,1.3,0.5,1.8,0.9c0.6,0.5,1,1,1.4,1.8
		c0.3,0.7,0.5,1.6,0.5,2.7c0,1.2-0.2,2.1-0.5,2.9c-0.3,0.8-0.8,1.4-1.3,1.9c-0.6,0.5-1.2,0.8-2.1,1.1c-0.8,0.2-1.7,0.3-2.8,0.3
		c-0.6,0-1.1,0-1.6-0.1c-0.4,0-0.8-0.1-1.1-0.1V40.5L140.9,40.5z M155.9,48.1c-0.3,0-0.6,0-0.9,0.1c-0.3,0-0.5,0.1-0.7,0.2
		c-0.2,0.1-0.4,0.2-0.5,0.4c-0.1,0.2-0.2,0.4-0.2,0.7c0,0.4,0.1,0.6,0.3,0.8c0.2,0.2,0.4,0.3,0.7,0.3c0.3,0,0.5-0.1,0.8-0.3
		c0.2-0.2,0.4-0.4,0.5-0.7c0-0.1,0-0.1,0-0.2c0-0.1,0-0.1,0-0.2V48.1L155.9,48.1z M158.4,50.1c0,0.4,0,0.8,0,1.1
		c0,0.4,0.1,0.7,0.1,0.9h-2.3l-0.2-0.9h0c-0.3,0.3-0.6,0.6-1,0.8c-0.4,0.2-0.8,0.3-1.3,0.3c-0.4,0-0.8-0.1-1.1-0.2
		c-0.3-0.1-0.6-0.3-0.8-0.6c-0.2-0.2-0.4-0.5-0.5-0.8c-0.1-0.3-0.2-0.6-0.2-1c0-0.6,0.1-1,0.3-1.4c0.2-0.4,0.6-0.7,1-1
		c0.4-0.3,0.9-0.5,1.5-0.6c0.6-0.1,1.2-0.2,1.9-0.2v-0.1c0-0.1,0-0.3-0.1-0.4c0-0.1-0.1-0.3-0.2-0.4c-0.1-0.1-0.3-0.2-0.4-0.3
		c-0.2-0.1-0.4-0.1-0.7-0.1c-0.4,0-0.8,0.1-1.2,0.2c-0.4,0.1-0.7,0.3-1,0.4l-0.5-1.6c0.3-0.2,0.7-0.3,1.2-0.5
		c0.5-0.2,1.2-0.2,1.9-0.2c0.7,0,1.3,0.1,1.7,0.3c0.5,0.2,0.8,0.5,1.1,0.8c0.3,0.3,0.5,0.7,0.6,1.2c0.1,0.4,0.2,0.9,0.2,1.4V50.1
		L158.4,50.1z M163,41.3v2.3h1.8v1.8H163v3.3c0,0.5,0.1,0.9,0.2,1.1c0.2,0.2,0.4,0.3,0.8,0.3c0.2,0,0.3,0,0.4,0c0.1,0,0.2,0,0.3-0.1
		l0,1.9c-0.2,0.1-0.4,0.1-0.7,0.1c-0.3,0-0.6,0.1-0.9,0.1c-0.4,0-0.8-0.1-1.1-0.2c-0.3-0.1-0.6-0.3-0.8-0.5c-0.2-0.2-0.4-0.6-0.5-1
		c-0.1-0.4-0.2-0.9-0.2-1.5v-3.7h-1.1v-1.8h1.1V42L163,41.3L163,41.3z M170.3,48.1c-0.3,0-0.6,0-0.9,0.1c-0.3,0-0.5,0.1-0.7,0.2
		c-0.2,0.1-0.4,0.2-0.5,0.4c-0.1,0.2-0.2,0.4-0.2,0.7c0,0.4,0.1,0.6,0.3,0.8c0.2,0.2,0.4,0.3,0.7,0.3c0.3,0,0.5-0.1,0.8-0.3
		c0.2-0.2,0.4-0.4,0.5-0.7c0-0.1,0-0.1,0-0.2c0-0.1,0-0.1,0-0.2V48.1L170.3,48.1z M172.7,50.1c0,0.4,0,0.8,0,1.1
		c0,0.4,0.1,0.7,0.1,0.9h-2.3l-0.2-0.9h0c-0.3,0.3-0.6,0.6-1,0.8c-0.4,0.2-0.8,0.3-1.3,0.3c-0.4,0-0.8-0.1-1.1-0.2
		c-0.3-0.1-0.6-0.3-0.8-0.6c-0.2-0.2-0.4-0.5-0.5-0.8c-0.1-0.3-0.2-0.6-0.2-1c0-0.6,0.1-1,0.3-1.4c0.2-0.4,0.6-0.7,1-1
		c0.4-0.3,0.9-0.5,1.5-0.6c0.6-0.1,1.2-0.2,1.9-0.2v-0.1c0-0.1,0-0.3-0.1-0.4c0-0.1-0.1-0.3-0.2-0.4c-0.1-0.1-0.3-0.2-0.4-0.3
		c-0.2-0.1-0.4-0.1-0.7-0.1c-0.4,0-0.8,0.1-1.2,0.2c-0.4,0.1-0.7,0.3-1,0.4l-0.5-1.6c0.3-0.2,0.7-0.3,1.2-0.5
		c0.5-0.2,1.2-0.2,1.9-0.2c0.7,0,1.3,0.1,1.7,0.3c0.5,0.2,0.8,0.5,1.1,0.8c0.3,0.3,0.5,0.7,0.6,1.2c0.1,0.4,0.2,0.9,0.2,1.4V50.1
		L172.7,50.1z M180.7,50.2c0.1,0,0.2,0,0.4,0s0.3,0,0.4,0c0.5,0,1-0.1,1.4-0.2c0.4-0.2,0.8-0.4,1.1-0.7c0.3-0.3,0.5-0.8,0.7-1.3
		c0.2-0.5,0.3-1.2,0.3-1.9c0-1.2-0.3-2.2-0.8-2.8c-0.6-0.6-1.3-1-2.4-1c-0.2,0-0.4,0-0.6,0c-0.2,0-0.3,0-0.4,0.1V50.2L180.7,50.2z
		 M178.1,40.5c0.4-0.1,0.9-0.1,1.5-0.2c0.6,0,1.1-0.1,1.7-0.1c1,0,1.9,0.1,2.5,0.3c0.7,0.2,1.3,0.5,1.8,0.9c0.6,0.5,1,1,1.4,1.8
		c0.3,0.7,0.5,1.6,0.5,2.7c0,1.2-0.2,2.1-0.5,2.9c-0.3,0.8-0.8,1.4-1.3,1.9c-0.6,0.5-1.2,0.8-2.1,1.1c-0.8,0.2-1.7,0.3-2.8,0.3
		c-0.6,0-1.1,0-1.6-0.1c-0.4,0-0.8-0.1-1.1-0.1V40.5L178.1,40.5z M190.2,42.6c-0.4,0-0.7-0.1-0.9-0.4c-0.2-0.2-0.4-0.6-0.4-0.9
		c0-0.4,0.1-0.7,0.4-0.9c0.2-0.2,0.6-0.4,1-0.4c0.4,0,0.7,0.1,0.9,0.4c0.2,0.2,0.4,0.6,0.4,0.9c0,0.4-0.1,0.7-0.4,0.9
		C191,42.4,190.7,42.6,190.2,42.6L190.2,42.6L190.2,42.6z M189,52.1v-8.5h2.5v8.5H189L189,52.1z M193.4,49.9
		c0.2,0.1,0.5,0.3,0.9,0.4c0.4,0.1,0.8,0.2,1.1,0.2c0.7,0,1.1-0.2,1.1-0.7c0-0.2-0.1-0.4-0.2-0.6c-0.2-0.1-0.5-0.3-0.9-0.5
		c-0.8-0.3-1.4-0.7-1.7-1.1c-0.3-0.4-0.5-0.9-0.5-1.4c0-0.4,0.1-0.8,0.2-1.1c0.2-0.3,0.4-0.6,0.7-0.9c0.3-0.2,0.6-0.4,1-0.6
		c0.4-0.1,0.9-0.2,1.4-0.2c0.5,0,0.9,0,1.2,0.1c0.4,0.1,0.7,0.2,0.9,0.3l-0.5,1.8c-0.2-0.1-0.4-0.2-0.7-0.3
		c-0.3-0.1-0.6-0.1-0.9-0.1c-0.3,0-0.6,0.1-0.7,0.2c-0.2,0.1-0.3,0.3-0.3,0.5c0,0.2,0.1,0.4,0.3,0.5c0.2,0.1,0.5,0.3,1,0.5
		c0.8,0.3,1.3,0.7,1.6,1.1c0.3,0.4,0.5,0.9,0.5,1.5c0,0.8-0.3,1.5-0.9,2c-0.6,0.5-1.5,0.7-2.6,0.7c-0.5,0-1-0.1-1.4-0.2
		c-0.4-0.1-0.8-0.2-1.1-0.4L193.4,49.9L193.4,49.9z M206.1,51.9c-0.2,0.1-0.5,0.2-0.9,0.2c-0.4,0.1-0.8,0.1-1.2,0.1
		c-0.7,0-1.2-0.1-1.8-0.3c-0.5-0.2-1-0.5-1.3-0.9c-0.4-0.4-0.7-0.8-0.9-1.4c-0.2-0.5-0.3-1.1-0.3-1.8c0-0.6,0.1-1.2,0.3-1.8
		c0.2-0.5,0.5-1,0.9-1.4c0.4-0.4,0.9-0.7,1.4-1c0.6-0.2,1.2-0.3,1.9-0.3c0.3,0,0.7,0,1,0.1c0.3,0.1,0.6,0.1,0.8,0.2l-0.4,1.9
		c-0.1-0.1-0.3-0.1-0.5-0.2c-0.2,0-0.5-0.1-0.8-0.1c-0.7,0-1.2,0.2-1.6,0.7c-0.4,0.5-0.6,1-0.6,1.7c0,0.8,0.2,1.4,0.6,1.8
		c0.4,0.4,0.9,0.6,1.5,0.6c0.5,0,1-0.1,1.3-0.2L206.1,51.9L206.1,51.9z M211,50.5c0.2,0,0.4-0.1,0.6-0.2c0.2-0.1,0.3-0.3,0.5-0.6
		c0.1-0.2,0.2-0.5,0.3-0.8c0.1-0.3,0.1-0.7,0.1-1c0-0.3,0-0.6-0.1-0.9c-0.1-0.3-0.1-0.6-0.3-0.8c-0.1-0.2-0.3-0.4-0.5-0.6
		c-0.2-0.2-0.4-0.2-0.7-0.2c-0.3,0-0.5,0.1-0.7,0.2c-0.2,0.2-0.4,0.3-0.5,0.6c-0.1,0.2-0.2,0.5-0.3,0.8c-0.1,0.3-0.1,0.6-0.1,0.9
		c0,0.4,0,0.7,0.1,1c0.1,0.3,0.2,0.6,0.3,0.8c0.1,0.2,0.3,0.4,0.5,0.5C210.5,50.4,210.7,50.5,211,50.5L211,50.5L211,50.5z
		 M210.9,52.3c-0.6,0-1.1-0.1-1.6-0.3c-0.5-0.2-0.9-0.5-1.3-0.9c-0.4-0.4-0.6-0.8-0.8-1.4c-0.2-0.5-0.3-1.2-0.3-1.8
		c0-0.7,0.1-1.3,0.3-1.9c0.2-0.6,0.5-1,0.9-1.4c0.4-0.4,0.8-0.7,1.3-0.9c0.5-0.2,1.1-0.3,1.7-0.3c0.6,0,1.2,0.1,1.6,0.3
		c0.5,0.2,0.9,0.5,1.3,0.9c0.3,0.4,0.6,0.8,0.8,1.4c0.2,0.5,0.3,1.1,0.3,1.8c0,0.8-0.1,1.5-0.4,2.1c-0.2,0.6-0.6,1-0.9,1.4
		c-0.4,0.4-0.8,0.6-1.3,0.8C211.9,52.2,211.4,52.3,210.9,52.3L210.9,52.3L210.9,52.3z M218.3,43.6l1,3.9c0.2,0.7,0.3,1.4,0.4,2.2
		h0.1c0.1-0.4,0.1-0.7,0.2-1.1c0.1-0.3,0.2-0.7,0.2-1.1l1-3.9h2.6l-2.9,8.5h-2.5l-2.9-8.5H218.3L218.3,43.6z M229.6,47
		c0-0.2,0-0.4-0.1-0.6c0-0.2-0.1-0.4-0.2-0.6c-0.1-0.2-0.2-0.3-0.4-0.4c-0.2-0.1-0.4-0.2-0.6-0.2c-0.2,0-0.5,0.1-0.6,0.2
		c-0.2,0.1-0.3,0.3-0.4,0.4c-0.1,0.2-0.2,0.4-0.3,0.6c-0.1,0.2-0.1,0.4-0.1,0.6H229.6L229.6,47z M226.8,48.7c0,0.3,0.1,0.5,0.2,0.7
		c0.1,0.2,0.3,0.4,0.5,0.5c0.2,0.1,0.4,0.2,0.7,0.3c0.3,0.1,0.5,0.1,0.8,0.1c0.4,0,0.8,0,1.1-0.1c0.3-0.1,0.7-0.1,1-0.2l0.3,1.7
		c-0.4,0.2-0.9,0.3-1.3,0.4c-0.5,0.1-1,0.1-1.5,0.1c-1.4,0-2.4-0.4-3.1-1.1c-0.7-0.8-1.1-1.8-1.1-3.1c0-0.6,0.1-1.2,0.3-1.7
		c0.2-0.6,0.4-1,0.8-1.5c0.3-0.4,0.8-0.8,1.3-1c0.5-0.3,1.1-0.4,1.7-0.4c0.6,0,1.2,0.1,1.6,0.3c0.4,0.2,0.8,0.5,1.1,0.9
		c0.3,0.4,0.5,0.8,0.6,1.3c0.1,0.5,0.2,1,0.2,1.6c0,0.3,0,0.5,0,0.7c0,0.2,0,0.3-0.1,0.4H226.8L226.8,48.7z M233.3,46.3
		c0-0.6,0-1.1,0-1.5c0-0.4,0-0.8-0.1-1.2h2.2l0.1,1.5h0.1c0.2-0.6,0.5-1,0.9-1.3c0.4-0.3,0.8-0.4,1.2-0.4c0.1,0,0.2,0,0.3,0
		c0.1,0,0.2,0,0.3,0v2.4c-0.1,0-0.2,0-0.3,0c-0.1,0-0.2,0-0.4,0c-0.4,0-0.8,0.1-1.1,0.3c-0.3,0.2-0.5,0.5-0.6,1
		c0,0.2-0.1,0.4-0.1,0.7v4.3h-2.5V46.3L233.3,46.3z M241.3,43.6l1.2,4.3c0.1,0.3,0.1,0.5,0.2,0.8c0.1,0.3,0.1,0.5,0.2,0.7h0.1
		c0.1-0.2,0.1-0.5,0.2-0.8c0.1-0.3,0.1-0.5,0.2-0.8l0.9-4.3h2.6l-1.9,5.9c-0.2,0.7-0.5,1.3-0.7,1.9c-0.2,0.5-0.4,1-0.7,1.4
		c-0.2,0.4-0.4,0.8-0.6,1.1c-0.2,0.3-0.4,0.6-0.7,0.8c-0.4,0.4-0.9,0.7-1.3,0.9c-0.4,0.2-0.8,0.3-1.1,0.3l-0.6-2.1
		c0.3-0.1,0.7-0.3,1.1-0.5c0.2-0.1,0.4-0.3,0.5-0.5c0.2-0.2,0.3-0.4,0.4-0.6c0.1-0.1,0.1-0.3,0.1-0.4c0-0.1,0-0.2-0.1-0.4l-2.9-7.8
		H241.3z"/>
	<g>
		<linearGradient id="SVGID_1_" gradientUnits="userSpaceOnUse" x1="46.785" y1="-5.7143" x2="13.625" y2="46.4638">
			<stop  offset="0" style="stop-color:#81BC03"/>
			<stop  offset="0.2094" style="stop-color:#EB4700"/>
			<stop  offset="0.4346" style="stop-color:#DB0000"/>
			<stop  offset="0.6178" style="stop-color:#C9168B"/>
			<stop  offset="0.7958" style="stop-color:#3D258F"/>
			<stop  offset="0.9948" style="stop-color:#00AAE9"/>
		</linearGradient>
		<path class="st1" d="M41.9,39.9c0,0,0,0.3,0,0.4c0,0-0.1,0.4,0.2,0.7c0,0,0.4,0.4,0.7,0c0,0,0.7-0.7,0.5-3.8c0,0,0-2.3-0.3-3.8
			c0,0-0.2-1.7-0.9-3.6L41.6,28c0,0-0.1-0.3-0.1-0.8l-0.3-2.9c0,0,0-1.1-0.2-1.9c0,0-0.2-0.7-0.4-1.2c0,0-0.3-0.7,0.4-1.5
			c0,0,0.7-0.8,1.3-0.2c0,0,0.2,0.3,0.3,0.5c0,0-0.3,1.1,1.9,1.2c0,0,0.9,0,1.8-0.9c0,0,0.6-0.5,0.3-1.9c0,0-0.1-1.2-1.1-1.5
			L45,15.8c0,0-0.1-0.5-0.6-0.1L43.9,16c0,0-0.9-1-1.1-0.3c0,0-2.1,1.8-3.9,1.4c0,0-0.1-0.6-0.4-1c0,0,2.3-1.4,2.6-1.6
			c0,0,1.9-1,2.4-1.2c0,0,0.6-0.3,1.3-0.5c0,0,0.7-0.2,1.4-0.6c0,0,1.4-0.6,2.1-1.2c0,0,1.7-1.1,3.3-1.7c0,0,0.3,0.5,1.5-0.2
			c0,0,0.3-0.2,0.6-0.2c0,0,0.3,0.1,0.6-0.2c0,0,0.2-0.2,0.1-0.6l10.8-2.4c0,0,1.2,0.5,1.6-0.6c0,0,0.4-1.4-2.8-1.5
			c0,0-3.1-0.3-7-0.1c0,0-2.2,0.1-4.7,0.6c0,0-3.3,0.8-6.2,0c0,0-3.1-0.8-4.3-1.3c0,0-5.5-1.9-9.2-1.9c0,0-5.4-0.4-10,1.6
			c0,0-3.1,1.6-4.2,2.8c0,0-4.2,3.2,0.4,4.6c0,0,4.5,1,8.1,0.6s1.9,1,0,1.4c0,0-6.3,1.7-7.3,1.9c0,0-7.6,1.7-10.8,3.1
			c0,0-5.5,1.9-7,5.1c0,0-3,4.1,3.1,4.9c0,0,5.8-0.2,3.1,3.5l-2.9,4c0,0-3.4,3.3-4.1,7.2c0,0-1.6,5.5,3.3,7.3c0,0,2.5,1.5,9.7,0.1
			c0,0,6.9-0.8,6.6,3.8c0,0-0.9,2.2-1,2.5c0,0-2,3.3,1.7,3.7c0,0,1.3,0.4,4.4-0.2c0,0,2.4-0.1,4,0.2l1.3,0.4c0,0,1,0.5,1.2-0.6
			c0,0,0.3-1.5-1.2-2c0,0-1.8-0.5-3.2-0.3l-3.1,0.2c0,0-2.7,0.4-3.4,0l1-2.9c0,0,1.2-2.9-1.9-5.6c0,0-1.9-2.2-6.6-1.3
			c0,0-6.3,1.2-8.3,0.4c0,0-3.9-0.3-2.1-6.6c0,0,1.5-3.5,3.9-6.2c0,0,3.8-4.1,3.7-6.4c0,0-0.2-2.9-5.3-3.3c0,0-4.3-0.8-0.5-3.9
			c0,0,3.4-2.6,11.3-4.6c0,0,10.4-2.4,11.8-3.2c0,0,7.4-3.3,0.7-5.2c0,0-2.3-0.6-7.3-0.5c0,0-3.9,0-1.6-1.4s3.4-2.3,7-3
			c0,0,4.2-0.9,9.1,0c0,0,6.1,1.6,8.5,2.4c0,0,3.3,1.1,6.3,0.7c0,0,2.8-0.4,3.8-0.6c0,0,6.2-0.5,7.6-0.3l-7.9,1.7
			c0,0-0.1-0.3-0.6,0.1c0,0-0.3-0.2-0.5,0.1c0,0-0.2-0.3-0.5,0l-0.2,0.2c0,0-0.2-0.2-0.4,0l-0.3,0.2c0,0-0.2,0.2-0.1,0.4
			c0,0-1.2,0.2-2.4,0.8l-1.8,0.8c0,0-1.4,0.4-1.9,0.7c0,0-1.3,0.7-2.1,0.9c0,0-1.5,0.6-2.3,1c0,0-1,0.5-1.4,0.8c0,0-0.4,0.3-0.7,0.4
			l-3.3,1.4c0,0-0.3,0.1-0.5,0.1c0,0-1.5,0-2.6,1.7c0,0-2.3,1.6-3,3.5c0,0-0.9,3.1-1.1,4.2c0,0-0.3,1.2-1,1.5c0,0-1,0.2-2.1,0.2
			c0,0-2.2,0.2-3.2,0.4c0,0-1.4,0.3-3,1.1c0,0-1.5,0.7-2,0.9c0,0-1.7,0.2-1.2,1.8c0,0,0.2,1.9,2.5,2.7c0,0,2.1,0.6,3.8,1.2
			c0,0,2.2,0.8,3.5,1l1.7,0.4c0,0,0.2,0.5,4.2,1.4c0,0,2,0.2,3.1,0.7c0,0,0.4,0.2,0.6,0.4c0,0,0.5,0.4,0.8,0c0,0,0.6-0.5-0.6-1.5
			c0,0-1.5-1.1-2.3-1.5c0,0-0.8-0.6-1.3-1.4c0,0-0.9-1.4-1.7-0.8l-0.9,0.6c0,0-0.2,0.2-0.6,0l-2.4-0.6c0,0-1.3-0.3-1.9-0.9
			c0,0-1.2-1.3-2.5-1.8c0,0,1.1,0,2.2,0.2c0,0,0.8,0.1,2,0.1l3.5,0l0.4,0.7c0,0,1-0.4,2.2,0.5c0,0,0.8,0.7,1.2,1.4
			c0,0,1.2,1,2.2,1.4l-2-5.1c0,0,1.7-1.8-0.9-4.7c0,0-0.5-1.5-0.4-2.5l3-0.2c0,0,1.9-0.3,2.9,1.7c0,0,0.7,3.3,1.2,5
			c0,0,0.4,2.5,0.8,3.9l0.9,2.6c0,0,0.2,0.4,0.2,0.6c0,0,0,0.9-0.5,1.8l-0.3,0.9c0,0-0.3,0.5,0.3,0.7c0,0-0.7,0.5-0.2,0.9
			C40.8,40,41.1,40.3,41.9,39.9z"/>
		<linearGradient id="SVGID_2_" gradientUnits="userSpaceOnUse" x1="36.2024" y1="33.6052" x2="36.2024" y2="56.575">
			<stop  offset="0" style="stop-color:#C71A89"/>
			<stop  offset="0.5393" style="stop-color:#3E2F8B"/>
			<stop  offset="1" style="stop-color:#422F8B"/>
		</linearGradient>
		<path class="st2" d="M33.4,39.4c0,0,1.6-0.3,3.7,0.7c0,0,1,1.6,0.9,4.1c0,0-0.2,2.3-0.3,2.6c0,0-0.5,2.1-0.1,3.2
			c0,0,2.4,1.1,0.5,2.7c0,0,0,0.6,0.6,1.9c0,0,0.9,1.8-0.6,2.4c0,0-0.8,0-0.5-1.2c0,0,0.1-0.1-0.6-0.8c0,0-0.7-0.7-1.1-2.5l-0.2-1.2
			c0,0-0.9-3-0.5-5c0,0-0.5-3.3-1-4.3C34.3,42,33.6,40.3,33.4,39.4z"/>
	</g>
</g>
</svg>
