<?xml version="1.0" encoding="utf-8"?>
<!-- Generator: Adobe Illustrator 25.0.1, SVG Export Plug-In . SVG Version: 6.00 Build 0)  -->
<svg version="1.1" id="Layer_1" xmlns="http://www.w3.org/2000/svg" xmlns:xlink="http://www.w3.org/1999/xlink" x="0px" y="0px"
	 viewBox="0 0 382.81 382.82" style="enable-background:new 0 0 382.81 382.82;" xml:space="preserve">
<style type="text/css">
	.st0{opacity:0.15;fill:#26266C;}
	.st1{fill:#26266C;}
</style>
<circle class="st0" cx="192.32" cy="185.14" r="145.91"/>
<path class="st1" d="M149.44,190.5c0-11.43,0-22.85,0-34.28c0-6.45,3.58-11.55,9.43-13.33c1.53-0.43,3.11-0.65,4.7-0.65
	c4.18-0.09,8.37-0.05,12.56,0c0.78,0,1.12-0.25,1.47-0.97c2.93-6.21,7.82-9.65,14.72-9.67c6.9-0.02,11.8,3.43,14.74,9.63
	c0.37,0.79,0.76,1.01,1.57,1.01c4.1-0.04,8.2-0.02,12.3,0c8.6,0,14.29,5.7,14.29,14.35c0,11.3,0,22.6,0,33.89
	c0,11.42,0,22.85,0,34.28c0,6.56-3.81,11.74-9.84,13.4c-1.33,0.34-2.71,0.51-4.09,0.49c-19.29,0.03-38.59,0.04-57.89,0.02
	c-8.24,0-13.95-5.73-13.96-14C149.42,213.28,149.42,201.89,149.44,190.5z M192.37,185.11c-5.27,0-10.55-0.07-15.82,0.05
	c-1.28,0.06-2.52,0.47-3.59,1.17c-1.89,1.26-2.49,3.69-1.77,5.82c0.7,2.24,2.81,3.75,5.16,3.69c10.68,0.03,21.35,0.03,32.02,0
	c0.63-0.01,1.25-0.12,1.84-0.34c2.49-0.87,3.89-3.32,3.47-5.98c-0.44-2.55-2.64-4.41-5.23-4.42
	C203.08,185.07,197.72,185.11,192.37,185.11z M192.38,163.7L192.38,163.7c-5.15,0-10.29,0-15.44,0c-0.75-0.03-1.5,0.05-2.23,0.23
	c-2.59,0.74-4.09,3.18-3.74,5.92c0.36,2.55,2.53,4.46,5.11,4.49c4.03,0.06,8.03,0.02,12.05,0.03c6.61,0,13.22,0,19.84,0
	c1.78,0,3.31-0.48,4.47-1.85c1.4-1.53,1.73-3.76,0.84-5.63c-0.9-2.06-2.56-3.18-4.84-3.19c-5.35-0.03-10.71-0.01-16.06-0.01V163.7z
	 M203,217.26c1.75,0,3.51,0.02,5.27,0c2.98-0.04,5.29-2.16,5.45-4.97c0.16-3.02-1.78-5.54-4.8-5.69c-3.93-0.2-7.86-0.2-11.78,0
	c-2.93,0.15-4.94,2.72-4.79,5.58c0.15,2.86,2.45,5,5.4,5.03c1.75,0.05,3.51,0.03,5.26,0.03V217.26z"/>
</svg>
